<svg width="180" height="43" viewBox="0 0 180 43" fill="none" xmlns="http://www.w3.org/2000/svg">
    <path d="M50.4241 13.75H54.3013V35.2115H50.4241V27.3204C49.2814 28.8029 47.6584 29.5441 45.5552 29.5441C43.452 29.5441 41.7977 28.7731 40.355 27.229C38.932 25.6651 38.2204 23.7554 38.2204 21.5C38.2204 19.2446 38.932 17.3468 40.355 15.8028C41.7977 14.2388 43.5304 13.4559 45.5552 13.4559C47.58 13.4559 49.2814 14.1971 50.4241 15.6796V13.75ZM43.2717 24.6079C44.0734 25.4008 45.075 25.7963 46.2765 25.7963C47.4781 25.7963 48.4699 25.4008 49.252 24.6079C50.0341 23.7952 50.4241 22.7599 50.4241 21.5C50.4241 20.2401 50.0341 19.2147 49.252 18.4219C48.4699 17.6091 47.4781 17.2037 46.2765 17.2037C45.075 17.2037 44.0734 17.6091 43.2717 18.4219C42.4896 19.2147 42.0995 20.2401 42.0995 21.5C42.0995 22.7599 42.4896 23.7952 43.2717 24.6079Z" fill="#1D0001"/>
    <path d="M67.7654 13.75H71.6425V29.25H67.7654V27.4119C66.8245 28.8327 65.3309 29.5441 63.2865 29.5441C61.6439 29.5441 60.2816 28.9857 59.1996 27.8689C58.1372 26.7521 57.606 25.2081 57.606 23.2368V13.75H61.4832V22.7499C61.4832 23.7654 61.7537 24.5483 62.2946 25.0968C62.8356 25.6254 63.557 25.8897 64.4586 25.8897C65.4602 25.8897 66.2619 25.5757 66.8637 24.9458C67.4655 24.3158 67.7654 23.3719 67.7654 22.1121V13.75Z" fill="#1D0001"/>
    <path d="M86.6159 13.75H90.493V29.25H86.6159V27.3204C85.4535 28.8029 83.8207 29.5441 81.7175 29.5441C79.6143 29.5441 77.9913 28.7731 76.5487 27.229C75.1256 25.6651 74.4141 23.7554 74.4141 21.5C74.4141 19.2446 75.1256 17.3468 76.5487 15.8028C77.9913 14.2388 79.7143 13.4559 81.7175 13.4559C83.8207 13.4559 85.4555 14.1971 86.6159 15.6796V13.75ZM79.4634 24.6079C80.2455 25.4008 81.2373 25.7963 82.4388 25.7963C83.6404 25.7963 84.6322 25.4008 85.4143 24.6079C86.216 23.7952 86.6159 22.7599 86.6159 21.5C86.6159 20.2401 86.216 19.2147 85.4143 18.4219C84.6322 17.6091 83.6404 17.2037 82.4388 17.2037C81.2373 17.2037 80.2455 17.6091 79.4634 18.4219C78.6813 19.2147 78.2912 20.2401 78.2912 21.5C78.2912 22.7599 78.6813 23.7952 79.4634 24.6079Z" fill="#1D0001"/>
    <path d="M105.4 7.78846H109.277V29.25H105.4V27.3204C104.257 28.8029 102.634 29.5441 100.531 29.5441C98.4275 29.5441 96.7732 28.7731 95.3306 27.229C93.9075 25.6651 93.196 23.7554 93.196 21.5C93.196 19.2446 93.9075 17.3468 95.3306 15.8028C96.7732 14.2388 98.5059 13.4559 100.531 13.4559C102.556 13.4559 104.257 14.1971 105.4 15.6796V7.78846ZM98.2472 24.6079C99.0489 25.4008 100.051 25.7963 101.252 25.7963C102.454 25.7963 103.445 25.4008 104.228 24.6079C105.01 23.7952 105.4 22.7599 105.4 21.5C105.4 20.2401 105.01 19.2147 104.228 18.4219C103.445 17.6091 102.454 17.2037 101.252 17.2037C100.051 17.2037 99.0469 17.6091 98.2472 18.4219C97.4651 19.2147 97.0751 20.2401 97.0751 21.5C97.0751 22.7599 97.4651 23.7952 98.2472 24.6079Z" fill="#1D0001"/>
    <path d="M119.975 29.5441C117.711 29.5441 115.818 28.7731 114.295 27.229C112.791 25.685 112.041 23.7753 112.041 21.5C112.041 19.2247 112.791 17.315 114.295 15.771C115.818 14.2269 117.711 13.4559 119.975 13.4559C121.437 13.4559 122.77 13.8116 123.972 14.523C125.173 15.2344 126.085 16.1883 126.706 17.3865L123.37 19.3678C123.07 18.7378 122.61 18.241 121.988 17.8754C121.386 17.5097 120.706 17.3269 119.944 17.3269C118.781 17.3269 117.821 17.7224 117.059 18.5153C116.298 19.2863 115.916 20.2819 115.916 21.502C115.916 22.7221 116.296 23.6958 117.059 24.4887C117.821 25.2597 118.781 25.6472 119.944 25.6472C120.726 25.6472 121.416 25.4744 122.018 25.1286C122.639 24.763 123.1 24.2662 123.399 23.6362L126.765 25.5856C126.104 26.7839 125.171 27.7497 123.97 28.481C122.768 29.1924 121.435 29.5481 119.973 29.5481L119.975 29.5441Z" fill="#1D0001"/>
    <path d="M141.388 27.229C139.845 28.7731 137.961 29.5441 135.737 29.5441C133.512 29.5441 131.628 28.7731 130.085 27.229C128.562 25.6651 127.802 23.7554 127.802 21.5C127.802 19.2446 128.562 17.3468 130.085 15.8028C131.628 14.2388 133.512 13.4559 135.737 13.4559C137.961 13.4559 139.843 14.2388 141.388 15.8028C142.93 17.3468 143.702 19.2465 143.702 21.5C143.702 23.7535 142.932 25.6651 141.388 27.229ZM132.822 24.5165C133.604 25.3094 134.576 25.7049 135.737 25.7049C136.897 25.7049 137.871 25.3094 138.651 24.5165C139.431 23.7237 139.823 22.7181 139.823 21.5C139.823 20.2819 139.433 19.2763 138.651 18.4835C137.869 17.6906 136.899 17.2951 135.737 17.2951C134.574 17.2951 133.602 17.6906 132.822 18.4835C132.061 19.2763 131.679 20.2819 131.679 21.5C131.679 22.7181 132.059 23.7237 132.822 24.5165Z" fill="#1D0001"/>
    <path d="M157.819 7.78846H161.696V29.25H157.819V27.3204C156.677 28.8029 155.054 29.5441 152.95 29.5441C150.847 29.5441 149.193 28.7731 147.75 27.229C146.327 25.6651 145.616 23.7554 145.616 21.5C145.616 19.2446 146.327 17.3468 147.75 15.8028C149.193 14.2388 150.926 13.4559 152.95 13.4559C154.975 13.4559 156.677 14.1971 157.819 15.6796V7.78846ZM150.667 24.6079C151.468 25.4008 152.47 25.7963 153.672 25.7963C154.873 25.7963 155.865 25.4008 156.647 24.6079C157.429 23.7952 157.819 22.7599 157.819 21.5C157.819 20.2401 157.429 19.2147 156.647 18.4219C155.865 17.6091 154.873 17.2037 153.672 17.2037C152.47 17.2037 151.468 17.6091 150.667 18.4219C149.885 19.2147 149.495 20.2401 149.495 21.5C149.495 22.7599 149.885 23.7952 150.667 24.6079Z" fill="#1D0001"/>
    <path d="M168.518 23.1156C169.039 25.0253 170.45 25.9791 172.755 25.9791C174.237 25.9791 175.36 25.4704 176.121 24.4549L179.247 26.2831C177.763 28.4571 175.58 29.5441 172.695 29.5441C170.209 29.5441 168.216 28.783 166.714 27.2588C165.211 25.7347 164.46 23.8151 164.46 21.5C164.46 19.1849 165.201 17.2951 166.685 15.771C168.169 14.2269 170.072 13.4559 172.395 13.4559C174.598 13.4559 176.413 14.2269 177.834 15.771C179.277 17.315 179.998 19.2247 179.998 21.5C179.998 22.0087 179.947 22.5453 179.847 23.1156H168.516H168.518ZM168.457 20.0692H176.121C175.901 19.0339 175.439 18.2609 174.739 17.7542C174.057 17.2454 173.277 16.9931 172.395 16.9931C171.352 16.9931 170.491 17.2673 169.809 17.8158C169.127 18.3444 168.676 19.0955 168.457 20.0712V20.0692Z" fill="#1D0001"/>
    <path fill-rule="evenodd" clip-rule="evenodd" d="M30.5779 19.2922C30.5113 18.1198 29.9585 16.9692 29.0078 16.1287L19.3229 7.54404C17.008 5.48532 13.5582 5.48532 11.2256 7.54404L1.52694 16.1267C0.442988 17.0984 0 18.4397 0 19.795V23.7078C0.064684 24.8941 0.572356 26.0308 1.52694 26.8892L10.9198 35.1917L11.2276 35.456C13.5425 37.5147 16.9923 37.5147 19.3248 35.456L19.6326 35.1917L29.0235 26.8892C29.9624 26.0487 30.4975 24.8782 30.5779 23.7078V19.2903V19.2922Z" fill="#E62334"/>
    <path fill-rule="evenodd" clip-rule="evenodd" d="M18.3036 8.73038L28.0023 17.313C29.347 18.4994 29.347 20.6237 28.0023 21.81L22.318 26.8336L8.47361 14.5946C8.32856 14.4634 8.11687 14.4634 7.97182 14.5946L3.55174 18.4994C2.92058 19.0597 2.92058 20.0653 3.55174 20.6237L13.2504 29.2063C14.4167 30.2277 16.1338 30.2277 17.2981 29.2063L18.8035 27.8729L19.9854 28.9102L18.3017 30.3926C16.5689 31.9247 13.9776 31.9247 12.2292 30.3926L2.53248 21.81C1.20548 20.6237 1.20548 18.4994 2.53248 17.313L12.2312 8.73038C13.9639 7.19827 16.5552 7.19827 18.3036 8.73038ZM8.21487 18.5153L16.4415 25.7963L15.5183 26.619C15.3752 26.7481 15.1713 26.7501 15.0243 26.6269L15.0165 26.619L7.37398 19.8487C7.19953 19.7036 7.19561 19.4294 7.36614 19.2644L7.37398 19.2565L8.21683 18.5153H8.21487ZM13.2504 9.89885L9.73593 13.0287C9.55756 13.1777 9.55756 13.4579 9.73593 13.6208L22.0749 24.5265C22.2199 24.6576 22.4316 24.6576 22.5767 24.5265L26.9968 20.6217C27.6279 20.0613 27.6279 19.0558 26.9968 18.4974L22.5767 14.5926C22.4316 14.4614 22.2199 14.4614 22.0749 14.5926L20.3108 16.1585C20.1324 16.3075 20.1324 16.5877 20.3108 16.7506L23.1608 19.2704C23.3392 19.4194 23.3392 19.6976 23.1608 19.8626L22.318 20.6038L14.109 13.3228L15.0322 12.5001C15.1772 12.3689 15.3889 12.3689 15.534 12.5001L18.5467 15.1688C18.6917 15.3 18.9034 15.3 19.0485 15.1688L20.8126 13.6029C20.9909 13.4539 20.9909 13.1737 20.8126 13.0108L17.2981 9.89686C16.1318 8.87545 14.4147 8.87545 13.2504 9.89686V9.89885Z" fill="white"/>
</svg>
