<svg width="101" height="35" viewBox="0 0 101 35" fill="none" xmlns="http://www.w3.org/2000/svg">
<g clip-path="url(#clip0_903_10227)">
<path fill-rule="evenodd" clip-rule="evenodd" d="M0 0.330894H6.76079C10.524 0.330894 12.4864 2.25222 12.4864 4.62185C12.4864 6.25497 11.5591 7.36507 10.2652 7.94147V7.98416C11.9149 8.57123 12.8423 9.86279 12.8423 11.5173C12.8423 13.8762 11.0092 15.947 7.03035 15.947H0V0.330894ZM6.54513 6.52182C7.66654 6.52182 8.17333 5.9561 8.17333 5.32633C8.17333 4.69657 7.66654 4.1095 6.54513 4.1095H4.5611V6.51115H6.54513V6.52182ZM6.60983 12.1684C7.79593 12.1684 8.36742 11.6027 8.36742 10.8768C8.36742 10.151 7.77436 9.58527 6.63139 9.58527H4.5611V12.1684H6.60983ZM13.8127 9.59594V0.330894H18.4169V9.55324C18.4169 11.2931 19.2796 12.2111 20.7568 12.2111C22.234 12.2111 23.1614 11.2931 23.1614 9.53189V0.330894H27.7872V9.59594C27.7872 13.524 25.1238 16.3526 20.7568 16.3526C16.3898 16.3526 13.8127 13.524 13.8127 9.59594ZM39.5188 1.08875V5.10218C38.5268 4.40837 36.8339 3.92804 35.4645 3.92804C34.2137 3.92804 33.5883 4.32298 33.5883 4.846C33.5883 5.36903 34.2892 5.63588 35.5292 6.08419C37.6426 6.82069 40.5108 7.8027 40.5108 11.1223C40.5108 14.0897 38.2464 16.2885 34.2784 16.2885C32.2296 16.2885 30.3534 15.7015 29.1889 14.9329V10.706C30.3319 11.624 32.0571 12.3605 33.7285 12.3605C35.141 12.3605 35.7987 11.8375 35.7987 11.2504C35.7987 10.4926 34.7205 10.1617 33.4373 9.70268C31.7444 9.09426 29.0703 8.00551 29.0703 4.97409C29.0595 2.24154 31.2376 0 35.1194 0C36.8339 0 38.3758 0.437635 39.5188 1.08875ZM41.6861 0.330894H46.2904V15.947H41.6861V0.330894ZM62.6586 15.9577H58.27L52.5875 7.57855H52.5659V15.9577H48.1989V0.330894H52.5875L58.27 8.57123H58.2916V0.330894H62.6586V15.9577ZM64.5671 0.330894H75.4685V4.38702H69.1714V6.26565H74.8323V9.94818H69.1714V11.8909H75.4685V15.947H64.5671V0.330894ZM87.0168 1.08875V5.10218C86.0248 4.40837 84.3319 3.92804 82.9625 3.92804C81.7117 3.92804 81.0863 4.32298 81.0863 4.846C81.0863 5.36903 81.7872 5.63588 83.0272 6.08419C85.1406 6.82069 88.0088 7.8027 88.0088 11.1223C88.0088 14.0897 85.7444 16.2885 81.7764 16.2885C79.7277 16.2885 77.8515 15.7015 76.6869 14.9329V10.706C77.8299 11.624 79.5551 12.3605 81.2265 12.3605C82.639 12.3605 83.2968 11.8375 83.2968 11.2504C83.2968 10.4926 82.2185 10.1617 80.9353 9.70268C79.2424 9.09426 76.5683 8.00551 76.5683 4.97409C76.5575 2.24154 78.7356 0 82.6174 0C84.3319 0 85.8738 0.437635 87.0168 1.08875ZM99.2013 1.08875V5.10218C98.2093 4.40837 96.5164 3.92804 95.147 3.92804C93.8962 3.92804 93.2708 4.32298 93.2708 4.846C93.2708 5.36903 93.9717 5.63588 95.2117 6.08419C97.3251 6.82069 100.193 7.8027 100.193 11.1223C100.193 14.0897 97.929 16.2885 93.9609 16.2885C91.9122 16.2885 90.036 15.7015 88.8714 14.9329V10.706C90.0144 11.624 91.7397 12.3605 93.411 12.3605C94.8235 12.3605 95.4813 11.8375 95.4813 11.2504C95.4813 10.4926 94.403 10.1617 93.1198 9.70268C91.427 9.09426 88.7528 8.00551 88.7528 4.97409C88.7421 2.24154 90.9202 0 94.8019 0C96.5164 0 98.0583 0.437635 99.2013 1.08875ZM10.1034 33.826H14.7077V18.2099H10.1034V33.826ZM31.0759 18.2099H26.6981V26.4502H26.6765L20.994 18.2099H16.6054V33.826H20.9832V25.4468H21.0048L26.6873 33.826H31.0759V18.2099ZM38.4944 17.8683C34.6126 17.8683 32.4345 20.1098 32.4345 22.8424C32.4345 25.8738 35.1194 26.9626 36.8015 27.571C38.0955 28.03 39.163 28.3609 39.163 29.1187C39.163 29.7058 38.5052 30.2288 37.0927 30.2288C35.4213 30.2288 33.6961 29.4923 32.5531 28.5743V32.8012C33.7177 33.5698 35.5939 34.1568 37.6426 34.1568C41.6106 34.1568 43.875 31.958 43.875 28.9906C43.875 25.671 41.0068 24.6783 38.8934 23.9525C37.6426 23.5149 36.9525 23.2587 36.9525 22.7143C36.9525 22.1699 37.5887 21.7963 38.8287 21.7963C40.1981 21.7963 41.891 22.2767 42.883 22.9705V18.9571C41.74 18.3059 40.1981 17.8683 38.4944 17.8683ZM44.9533 33.826H49.5575V18.2099H44.9533V33.826ZM56.0595 29.7058H56.9437C59.3267 29.7058 60.8686 28.3715 60.8686 26.0232C60.8686 23.675 59.3267 22.3194 56.9437 22.3194H56.0595V29.7058ZM65.5268 26.0232C65.5268 30.7305 61.9361 33.826 56.782 33.826H51.4553V18.2099H56.782C61.9361 18.2099 65.5268 21.3267 65.5268 26.0232ZM66.7668 33.826H77.6682V29.7698H71.371V27.8272H77.032V24.1446H71.371V22.266H77.6682V18.2099H66.7668V33.826ZM84.9142 25.5856C86.0787 25.5856 86.9845 25.0412 86.9845 23.9525C86.9845 22.8637 86.0787 22.3194 84.8926 22.3194H83.9222V25.5856H84.9142ZM92.4513 33.826H87.0276L84.03 29.0013H83.9222V33.826H79.3179V18.2099H84.9357C88.8822 18.2099 91.6318 19.9497 91.6318 23.6429C91.6318 25.1053 90.9741 27.2401 88.3539 28.3288L92.4513 33.826Z" fill="#353539"/>
</g>
<defs>
<clipPath id="clip0_903_10227">
<rect width="100.193" height="34.1568" fill="white"/>
</clipPath>
</defs>
</svg>
