<svg width="174" height="32" viewBox="0 0 174 32" fill="none" xmlns="http://www.w3.org/2000/svg">
<g clip-path="url(#clip0_903_10186)">
<path fill-rule="evenodd" clip-rule="evenodd" d="M16.0725 32.0003C7.23437 32.0003 0.0898438 24.8731 0.0898438 16.0451C0.0898438 7.21712 7.23437 0.0898438 16.0725 0.0898438C24.9218 0.0898438 32.0663 7.21712 32.0663 16.0451C32.0663 24.8731 24.9218 32.0003 16.0725 32.0003ZM8.35596 14.2325C8.59149 14.7919 9.21958 15.1052 9.81402 14.8703L10.0496 14.8255C10.2851 14.7919 10.5206 14.7472 10.7562 14.7472C12.5283 14.7472 13.9863 16.1682 13.9863 17.9696C13.9863 18.2045 13.9527 18.4395 13.9078 18.6745C13.8742 18.7192 13.8293 18.9094 13.8293 18.9094C13.7957 19.0661 13.7508 19.2339 13.7508 19.3905C13.7508 19.7038 13.8742 20.0171 14.0648 20.2073C14.3041 20.446 14.5808 20.5654 14.8948 20.5654C15.3659 20.5989 15.7584 20.3304 15.9603 19.9388C16.1959 19.3122 16.308 18.6409 16.308 17.9696C16.308 14.9038 13.7957 12.4311 10.7225 12.4311C10.0832 12.3863 9.45511 12.5094 8.87189 12.7444C8.35596 13.0577 8.12042 13.6842 8.35596 14.2325ZM8.9504 23.3178C9.61213 23.3178 10.1281 22.8031 10.1281 22.1318C10.1281 21.6619 9.84767 21.2367 9.42146 21.0801L9.26444 21.0017C8.23258 20.4087 7.60449 19.3458 7.60449 18.171V8.89544C7.60449 8.22411 7.05491 7.70942 6.42682 7.70942C5.75387 7.70942 5.24915 8.26887 5.24915 8.89544V18.2045C5.24915 20.364 6.50533 22.3332 8.46811 23.2395C8.59149 23.2731 8.71486 23.3178 8.87189 23.3178C8.87189 23.3514 8.87189 23.3514 8.9504 23.3178ZM27.6136 18.2829V13.3374C27.6136 12.7108 27.0977 12.1961 26.4696 12.1961C25.8415 12.1961 25.3256 12.7108 25.3256 13.3374V18.2829C25.3256 20.0507 24.1031 21.5052 22.6114 21.5052C21.1196 21.5052 19.8971 20.0954 19.8971 18.2829V13.3374C19.8971 12.7108 19.3812 12.1961 18.7531 12.1961C18.125 12.1961 17.6091 12.7108 17.6091 13.3374V18.2829C17.6091 20.0507 16.3529 21.5052 14.85 21.5052C13.3582 21.5052 12.1357 20.0954 12.1357 18.2829V17.6563C12.1357 17.0297 11.6198 16.515 10.9917 16.515C10.3636 16.515 9.84767 17.0297 9.84767 17.6563V18.3612C9.84767 21.4269 12.1357 23.8661 14.8948 23.8661C16.4314 23.8213 17.8895 23.0829 18.7867 21.8185C19.6952 23.0829 21.1533 23.8213 22.6899 23.8661C25.449 23.8661 27.6922 21.3486 27.6136 18.2829Z" fill="#353539"/>
<path fill-rule="evenodd" clip-rule="evenodd" d="M45.8055 7.28451C49.316 7.16143 52.1873 9.91388 52.3107 13.416C52.3107 13.5726 52.3107 13.7293 52.3107 13.8412C52.3892 17.4216 49.5067 20.3642 45.9288 20.4426C43.6857 20.4873 41.5546 19.3908 40.3321 17.4999L40.1414 20.174H39.2666V3.07751H40.4106V10.1153C41.6332 8.30269 43.6408 7.23975 45.8055 7.28451ZM51.1218 13.8412C51.2452 10.9321 49.002 8.50409 46.0859 8.38101C45.9625 8.38101 45.8503 8.38101 45.7718 8.38101C42.7323 8.38101 40.2985 10.8202 40.2985 13.8412C40.2985 16.8733 42.7323 19.3125 45.7718 19.3125C48.688 19.3908 51.0881 17.1083 51.1218 14.1992C51.1218 14.0798 51.1218 13.9605 51.1218 13.8412Z" fill="#353539"/>
<path d="M59.1633 20.4092C55.8547 20.4092 53.7236 18.205 53.7236 14.826V7.51971H54.8677V14.6694C54.8677 17.5449 56.4827 19.268 59.1185 19.268C61.7542 19.268 63.3693 17.5001 63.3693 14.6694V7.51971H64.5133V14.826C64.5918 18.205 62.472 20.3645 59.1633 20.4092Z" fill="#353539"/>
<path d="M70.8955 20.4087C67.9794 20.4087 66.1736 18.9541 66.0166 16.5597H67.1494C67.3064 18.3276 68.7645 19.3122 70.9404 19.3122C73.105 19.3122 74.5968 18.2828 74.5968 16.7164C74.5968 14.7471 72.7125 14.4003 70.7385 14.0758C68.5738 13.729 66.2521 13.259 66.2521 10.6968C66.2521 8.66042 68.1028 7.23944 70.817 7.23944C73.5313 7.23944 75.3034 8.66042 75.4267 10.8982H74.3164C74.2042 9.28699 72.9032 8.30238 70.7721 8.30238C68.6523 8.30238 67.3513 9.24224 67.3513 10.6968C67.3513 12.431 69.0449 12.7108 71.0189 13.0241C73.2172 13.3709 75.7408 13.8408 75.7408 16.7164C75.7408 18.9541 73.7668 20.4087 70.8955 20.4087Z" fill="#353539"/>
<path d="M77.8721 7.51971H79.0049V20.1295H77.8721V7.51971Z" fill="#353539"/>
<path d="M87.6745 7.2842C90.7028 7.2842 92.5983 9.44364 92.5983 12.666V20.1737H91.4543V12.8674C91.4543 9.99189 89.9513 8.30238 87.3941 8.30238C84.8817 8.3807 82.9077 10.4283 82.9414 12.9457V20.129H81.8086V7.51916H82.6274L82.8629 10.0702C83.8162 8.30238 85.6669 7.23944 87.6745 7.23944V7.2842Z" fill="#353539"/>
<path fill-rule="evenodd" clip-rule="evenodd" d="M106.697 14.2324H95.2006C95.3128 17.1415 97.7915 19.3905 100.708 19.2338C102.558 19.1555 104.252 18.0926 105.115 16.4366H106.338C105.396 18.831 103.029 20.4087 100.472 20.3639C96.9727 20.4087 94.0902 17.5779 94.0902 14.0758C94.0902 13.9975 94.0902 13.8856 94.0902 13.8073C93.9781 10.3052 96.726 7.36252 100.237 7.23944C100.311 7.23944 100.39 7.23944 100.472 7.23944C104.173 7.23944 106.731 10.115 106.731 13.7625C106.731 13.9639 106.697 14.0758 106.697 14.2324ZM95.2342 13.2143H105.598C105.474 10.4618 103.231 8.30238 100.472 8.34713C97.6793 8.30238 95.3913 10.4283 95.2342 13.2143Z" fill="#353539"/>
<path d="M112.563 20.4087C109.646 20.4087 107.841 18.9541 107.684 16.5597H108.816C108.973 18.3276 110.431 19.3122 112.607 19.3122C114.772 19.3122 116.264 18.2828 116.264 16.7164C116.264 14.7471 114.379 14.4003 112.405 14.0758C110.241 13.729 107.919 13.259 107.919 10.6968C107.919 8.66042 109.77 7.23944 112.484 7.23944C115.198 7.23944 116.97 8.66042 117.094 10.8982H115.995C115.871 9.28699 114.57 8.30238 112.439 8.30238C110.319 8.30238 109.018 9.24224 109.018 10.6968C109.018 12.431 110.712 12.7108 112.686 13.0241C114.884 13.3709 117.408 13.8408 117.408 16.7164C117.441 18.9541 115.512 20.4087 112.563 20.4087Z" fill="#353539"/>
<path d="M123.319 20.4087C120.436 20.4087 118.586 18.9541 118.429 16.5597H119.573C119.73 18.3276 121.188 19.3122 123.352 19.3122C125.517 19.3122 127.02 18.2828 127.02 16.7164C127.02 14.7471 125.125 14.4003 123.162 14.0758C120.986 13.729 118.664 13.259 118.664 10.6968C118.664 8.66042 120.515 7.23944 123.24 7.23944C125.955 7.23944 127.727 8.66042 127.839 10.8982H126.74C126.628 9.28699 125.326 8.30238 123.24 8.30238C121.143 8.30238 119.808 9.24224 119.808 10.6968C119.808 12.431 121.502 12.7108 123.476 13.0241C125.674 13.3709 128.198 13.8408 128.198 16.7164C128.198 18.9541 126.224 20.4087 123.319 20.4087Z" fill="#353539"/>
<path d="M147.658 7.51971L143.396 20.1295H141.309L138.079 12.4316L134.849 20.1295H132.729L128.479 7.51971H131.148L133.986 16.012L137.608 7.6316H138.438L142.106 16.0903L145.011 7.51971H147.658Z" fill="#353539"/>
<path d="M148.712 7.51971H151.314V20.1295H148.712V7.51971Z" fill="#353539"/>
<path d="M160.533 7.47449V9.91365H159.154C156.989 9.91365 155.923 11.1332 155.923 13.4157V20.129H153.321V7.51924H155.093L155.531 9.24232C156.439 8.03393 157.897 7.3626 159.389 7.44092H160.533V7.47449Z" fill="#353539"/>
<path fill-rule="evenodd" clip-rule="evenodd" d="M173.051 13.8861C173.051 14.1546 173.017 14.4343 173.017 14.7476H162.732C162.934 16.7168 164.627 18.1714 166.601 18.0931C167.981 18.1266 169.271 17.4217 169.989 16.2469H172.703C171.559 19.6259 167.858 21.4721 164.47 20.2861C161.756 19.391 159.939 16.7504 160.063 13.8861C159.939 10.3504 162.732 7.363 166.287 7.28468C166.366 7.28468 166.478 7.28468 166.557 7.28468C170.493 7.23992 173.051 10.2273 173.051 13.8861ZM166.601 9.56719C164.751 9.48887 163.136 10.7756 162.777 12.6217H170.415C170.101 10.7756 168.486 9.52244 166.601 9.56719Z" fill="#353539"/>
<path fill-rule="evenodd" clip-rule="evenodd" d="M41.0844 28.3865H38.4038L37.8543 29.7179H37.3047L39.503 24.4144H39.9853L42.2621 29.7179H41.6789L41.0844 28.3865ZM38.6394 27.883H40.9274L39.7834 25.1641L38.6394 27.883Z" fill="#353539"/>
<path fill-rule="evenodd" clip-rule="evenodd" d="M48.879 28.2633C48.879 29.0912 48.1724 29.7626 47.3425 29.7178C47.3088 29.7178 47.2639 29.7178 47.2639 29.7178H45.2227V24.4143H47.3088C48.0491 24.3807 48.6884 24.929 48.7669 25.6786C48.8005 26.2269 48.5313 26.6968 48.0491 26.9654C48.565 27.1668 48.879 27.715 48.879 28.2633ZM45.7274 26.7304H47.3088C47.7799 26.7304 48.1724 26.3388 48.1724 25.8688C48.1724 25.3989 47.7799 25.0073 47.3088 25.0073H45.7274V26.7304ZM48.3295 28.1849C48.3295 27.6367 47.892 27.2003 47.3425 27.2003C47.3425 27.2003 47.3425 27.2003 47.3088 27.2003H45.7274V29.1695H47.3088C47.8584 29.2031 48.3295 28.7668 48.3295 28.2185C48.3295 28.2185 48.3295 28.2185 48.3295 28.1849Z" fill="#353539"/>
<path d="M53.2529 29.2144V29.7179H50.2246V24.4144H53.1744V24.9291H50.7293V26.7305H52.9725V27.2452H50.7742V29.248H53.2529V29.2144Z" fill="#353539"/>
<path fill-rule="evenodd" clip-rule="evenodd" d="M56.4053 27.6034H55.0593V29.7628H54.5098V24.4593H56.5174C57.4259 24.4145 58.1774 25.1194 58.211 25.9922C58.211 26.0257 58.211 26.0257 58.211 26.0705C58.211 26.7754 57.6614 27.402 56.9548 27.5586L58.2559 29.7628H57.6614L56.4053 27.6034ZM55.0706 27.0887H56.4838C57.0782 27.1334 57.5941 26.6971 57.6726 26.1041C57.7512 25.5222 57.2689 25.0075 56.6856 24.9292C56.6071 24.9292 56.5623 24.9292 56.4838 24.9292H55.0706V27.0887Z" fill="#353539"/>
<path d="M60.8122 27.2454H59.9823V29.7628H59.4775V24.4594H59.9823V26.7754H60.8122L62.6292 24.4594H63.2909L61.2833 27.0104L63.4928 29.7628H62.8199L60.8122 27.2454Z" fill="#353539"/>
<path d="M63.8857 28.1067H64.4353C64.4353 28.8228 65.0298 29.2479 65.8149 29.2479C66.6449 29.2479 67.1159 28.8563 67.1159 28.2298C67.1159 27.6032 66.443 27.4018 65.7364 27.2116C65.0298 27.0102 63.9979 26.8088 63.9979 25.7906C63.9979 24.8843 64.7157 24.336 65.7812 24.336C66.6 24.2242 67.3851 24.806 67.5085 25.6339C67.5085 25.716 67.5085 25.7943 67.5085 25.8689H66.9925C66.9925 25.2423 66.4878 24.8507 65.7812 24.8507C65.0634 24.8507 64.5587 25.1976 64.5587 25.7906C64.5587 26.3388 65.2204 26.6186 65.9383 26.7752C66.6449 26.9318 67.7104 27.2116 67.7104 28.2633C67.7104 29.3263 66.8804 29.7962 65.8597 29.7962C64.9064 29.9193 64.0876 29.2927 63.9194 28.3416C63.8857 28.2633 63.8857 28.185 63.8857 28.1067Z" fill="#353539"/>
<path d="M72.904 24.4144V29.7179H72.3544V27.2452H69.4046V29.7179H68.8887V24.4144H69.4046V26.7305H72.3544V24.4144H72.904Z" fill="#353539"/>
<path d="M74.5635 24.4144H75.1131V29.7179H74.5635V24.4144Z" fill="#353539"/>
<path fill-rule="evenodd" clip-rule="evenodd" d="M78.6118 27.6032H77.2771V29.7627H76.7275V24.4592H78.7352C79.6437 24.4144 80.3839 25.1193 80.4288 25.992C80.4288 26.0256 80.4288 26.0256 80.4288 26.0704C80.4288 26.8088 79.9129 27.4466 79.1614 27.6032L80.5073 29.7627H79.9129L78.6118 27.6032ZM77.2323 27.0885H78.6567C79.2399 27.1333 79.7558 26.6969 79.8343 26.1039C79.9129 25.5221 79.4418 25.0074 78.8473 24.9291C78.7688 24.9291 78.7352 24.9291 78.6567 24.9291H77.2323V27.0885Z" fill="#353539"/>
<path d="M84.7588 29.2144V29.7179H81.7305V24.4144H84.6802V24.9291H82.2352V26.7305H84.4784V27.2452H82.2352V29.248H84.7588V29.2144Z" fill="#353539"/>
<path d="M92.2062 24.4144V29.7179H91.6454V27.2452H88.6956V29.7179H88.1797V24.4144H88.6956V26.7305H91.6454V24.4144H92.2062Z" fill="#353539"/>
<path fill-rule="evenodd" clip-rule="evenodd" d="M97.0512 28.3865H94.3706L93.821 29.7179H93.2266L95.4361 24.4144H95.9408L98.184 29.7179H97.6008L97.0512 28.3865ZM94.5612 27.883H96.8493L95.7053 25.1641L94.5612 27.883Z" fill="#353539"/>
<path d="M101.963 24.9291H100.348V29.7179H99.8436V24.9291H98.2285V24.4144H102.087L101.963 24.9291Z" fill="#353539"/>
<path d="M107.045 24.4144V29.7179H106.495V27.2452H103.579V29.7179H103.029V24.4144H103.579V26.7305H106.495V24.4144H107.045Z" fill="#353539"/>
<path fill-rule="evenodd" clip-rule="evenodd" d="M111.89 28.3865H109.221L108.66 29.7179H108.11L110.32 24.4144H110.791L113.034 29.7179H112.44L111.89 28.3865ZM109.456 27.883H111.733L110.555 25.1641L109.456 27.883Z" fill="#353539"/>
<path d="M120.593 24.4148L118.899 29.7183H118.428L116.892 25.6791L115.4 29.7183H114.929L113.19 24.4148H113.74L115.164 28.8232L116.78 24.5379H117.015L118.63 28.8232L120.01 24.3812H120.593V24.4148Z" fill="#353539"/>
<path fill-rule="evenodd" clip-rule="evenodd" d="M124.608 28.3865H121.894L121.345 29.7179H120.795L123.004 24.4144H123.554L125.797 29.7179H125.169L124.608 28.3865ZM122.118 27.883H124.406L123.262 25.1641L122.118 27.883Z" fill="#353539"/>
<path d="M128.197 27.637V29.7628H127.648V27.637L125.674 24.4594H126.268L127.917 27.1223L129.611 24.4594H130.205L128.197 27.637Z" fill="#353539"/>
<path d="M132.886 27.0886C132.807 25.6341 133.951 24.4145 135.409 24.3809C135.488 24.3809 135.521 24.3809 135.6 24.3809C136.744 24.3362 137.765 25.0858 138.079 26.1823H137.529C137.215 25.3991 136.43 24.8509 135.6 24.8844C134.377 24.8844 133.402 25.869 133.402 27.0886C133.402 28.3082 134.377 29.2928 135.6 29.2928C136.508 29.3264 137.293 28.7781 137.574 27.9166H138.123C137.843 29.0579 136.778 29.8411 135.6 29.7963C134.142 29.8746 132.919 28.7334 132.886 27.29C132.886 27.2453 132.886 27.1669 132.886 27.0886Z" fill="#353539"/>
<path fill-rule="evenodd" clip-rule="evenodd" d="M138.909 27.0886C138.909 25.5558 140.132 24.3026 141.623 24.3026C143.16 24.3026 144.427 25.511 144.427 27.0103C144.427 28.5432 143.205 29.7963 141.702 29.7963H141.668C140.165 29.8411 138.954 28.6998 138.909 27.2117C138.909 27.1669 138.909 27.1259 138.909 27.0886ZM143.911 27.0886C143.911 25.869 142.924 24.8509 141.702 24.8509C140.491 24.8509 139.459 25.8355 139.459 27.0439C139.459 28.2635 140.446 29.2928 141.668 29.2928C142.846 29.3264 143.878 28.3865 143.878 27.2117C143.911 27.1669 143.911 27.1222 143.911 27.0886Z" fill="#353539"/>
<path d="M151.235 29.7179L150.484 25.3543L148.6 29.5613H148.443L146.547 25.3543L145.807 29.7179H145.246L146.155 24.4144H146.671L148.521 28.5431L150.372 24.4144H150.888L151.785 29.7179H151.235Z" fill="#353539"/>
<path fill-rule="evenodd" clip-rule="evenodd" d="M156.63 26.1042C156.674 27.0105 156.002 27.7601 155.093 27.7937C155.015 27.7937 154.981 27.7937 154.902 27.7937H153.556V29.7182H153.052V24.4147H154.902C155.8 24.3811 156.551 25.0412 156.63 25.9475C156.63 25.9923 156.63 26.0259 156.63 26.1042ZM156.08 26.1042C156.08 25.4776 155.564 24.9629 154.936 24.9629C154.902 24.9629 154.902 24.9629 154.858 24.9629H153.556V27.2902H154.858C155.486 27.3238 156.046 26.8091 156.08 26.1825C156.08 26.1489 156.08 26.1042 156.08 26.1042Z" fill="#353539"/>
<path fill-rule="evenodd" clip-rule="evenodd" d="M160.612 28.3865H157.931L157.382 29.7179H156.832L159.03 24.4144H159.546L161.789 29.7179H161.206L160.612 28.3865ZM158.122 27.883H160.41L159.266 25.1641L158.122 27.883Z" fill="#353539"/>
<path d="M166.949 24.4144V29.7179H166.523L163.326 25.3543V29.7179H162.821V24.4144H163.292L166.444 28.7333V24.4144H166.949Z" fill="#353539"/>
<path d="M170.571 27.637V29.7628H170.021V27.637L168.059 24.4594H168.642L170.302 27.1223L171.951 24.4594H172.545L170.571 27.637Z" fill="#353539"/>
</g>
<defs>
<clipPath id="clip0_903_10186">
<rect width="173.061" height="32" fill="white"/>
</clipPath>
</defs>
</svg>
