<svg width="290" height="70" viewBox="0 0 290 70" fill="none" xmlns="http://www.w3.org/2000/svg">
<path d="M0 9.41406H17.4881C20.9753 9.41406 24.2328 10.1032 27.271 11.4918C30.3093 12.8804 32.9508 14.7388 35.1955 17.088C37.4402 19.4267 39.2256 22.1726 40.5411 25.2943C41.8566 28.4265 42.5144 31.7153 42.5144 35.1503C42.5144 38.5853 41.8566 41.8115 40.5411 44.7871C39.2256 47.7731 37.4507 50.3624 35.1955 52.5654C32.9508 54.7683 30.3093 56.4806 27.271 57.7231C24.2328 58.9655 20.9753 59.5919 17.4881 59.5919H0V9.41406ZM17.4881 50.9888C19.7851 50.9888 21.9254 50.5921 23.9091 49.809C25.8929 49.0155 27.6365 47.9193 29.1399 46.5098C30.6434 45.1003 31.8336 43.4298 32.6897 41.4878C33.5459 39.5563 33.9844 37.4368 33.9844 35.1399C33.9844 32.8429 33.5563 30.7339 32.6897 28.6562C31.8336 26.5785 30.6434 24.7514 29.1399 23.1749C27.6365 21.5983 25.8929 20.3455 23.9091 19.4162C21.9254 18.487 19.7851 18.0172 17.4881 18.0172H8.60311V50.9888H17.4881Z" fill="black"/>
<path d="M148.645 19.0602V10.457H183.412V19.0602H170.298V60.6349H161.768V19.0602H148.655H148.645Z" fill="black"/>
<path d="M187.848 12.6828C187.848 11.1584 188.349 9.88467 189.351 8.88237C190.353 7.88006 191.575 7.37891 193.005 7.37891C194.53 7.37891 195.803 7.88006 196.806 8.88237C197.808 9.88467 198.309 11.148 198.309 12.6828C198.309 14.1131 197.808 15.3347 196.806 16.337C195.803 17.3393 194.54 17.8404 193.005 17.8404C191.575 17.8404 190.353 17.3393 189.351 16.337C188.349 15.3347 187.848 14.1131 187.848 12.6828ZM188.787 24.7939H197.244V60.6367H188.787V24.7939Z" fill="black"/>
<path d="M244.476 42.643C244.476 45.4098 243.975 47.9886 242.973 50.3482C241.971 52.7182 240.582 54.7646 238.818 56.5082C237.053 58.2518 234.986 59.6299 232.616 60.6322C230.246 61.6345 227.709 62.1357 224.984 62.1357C222.259 62.1357 219.711 61.6241 217.352 60.6009C214.981 59.5777 212.935 58.1892 211.181 56.4456C209.427 54.702 208.049 52.6452 207.026 50.2751C206.002 47.9051 205.48 45.368 205.48 42.643C205.48 39.918 205.992 37.3705 207.026 35.0109C208.059 32.6513 209.437 30.5944 211.181 28.8508C212.925 27.1073 214.981 25.7187 217.352 24.6955C219.722 23.6723 222.259 23.1503 224.984 23.1503C227.04 23.1503 229.108 23.5679 231.185 24.4031C233.263 25.2384 234.923 26.2303 236.166 27.3787V10.4648H244.476V42.6534V42.643ZM236.166 42.643C236.166 41.1187 235.863 39.6674 235.268 38.3101C234.673 36.9528 233.869 35.7626 232.866 34.7603C231.864 33.758 230.684 32.954 229.317 32.3589C227.959 31.7638 226.508 31.461 224.984 31.461C223.459 31.461 222.008 31.7638 220.651 32.3589C219.293 32.954 218.103 33.758 217.101 34.7603C216.099 35.7626 215.295 36.9424 214.7 38.3101C214.104 39.6778 213.802 41.1187 213.802 42.643C213.802 44.1673 214.104 45.6186 214.7 46.9759C215.295 48.3332 216.099 49.5234 217.101 50.5257C218.103 51.528 219.283 52.3319 220.651 52.9271C222.008 53.5222 223.459 53.8249 224.984 53.8249C226.508 53.8249 227.959 53.5222 229.317 52.9271C230.674 52.3319 231.864 51.528 232.866 50.5257C233.869 49.5234 234.673 48.3436 235.268 46.9759C235.863 45.6081 236.166 44.1673 236.166 42.643Z" fill="black"/>
<path d="M259.251 43.2206C259.303 44.7032 259.637 46.0918 260.253 47.376C260.869 48.6706 261.684 49.7878 262.686 50.7483C263.688 51.7088 264.858 52.4606 266.194 53.0035C267.53 53.5568 268.94 53.8283 270.422 53.8283C272.907 53.8283 275.037 53.2227 276.802 52.0012C278.566 50.7796 279.861 49.1509 280.675 47.0941H289.779C288.965 49.8191 287.89 52.1369 286.553 54.0475C285.217 55.9582 283.682 57.5139 281.97 58.7041C280.247 59.8943 278.41 60.7713 276.447 61.3247C274.484 61.8781 272.479 62.1495 270.422 62.1495C267.697 62.1495 265.15 61.6379 262.79 60.6147C260.42 59.5916 258.363 58.2029 256.609 56.4593C254.855 54.7157 253.467 52.6589 252.454 50.2889C251.431 47.9189 250.93 45.3818 250.93 42.6568C250.93 39.9318 251.441 37.3842 252.454 35.0246C253.467 32.6651 254.855 30.6083 256.609 28.8647C258.363 27.1211 260.42 25.7324 262.79 24.7093C265.16 23.6861 267.697 23.1641 270.422 23.1641C273.429 23.1641 276.133 23.7174 278.524 24.8137C280.915 25.9099 282.941 27.3821 284.622 29.2196C286.292 31.0572 287.597 33.1975 288.527 35.6406C289.456 38.0733 289.946 40.6104 289.999 43.2414H259.24L259.251 43.2206ZM280.686 37.6244C279.965 35.6198 278.702 33.9075 276.885 32.498C275.069 31.0885 272.939 30.3786 270.506 30.3786C268.073 30.3786 265.943 31.0885 264.127 32.498C262.31 33.9075 261.047 35.6198 260.326 37.6244H280.686Z" fill="black"/>
<path d="M120.077 11.0078C133.051 11.0078 143.569 21.5252 143.569 34.499C143.569 47.473 133.051 57.9912 120.077 57.9912C107.103 57.9911 96.5859 47.4729 96.5859 34.499C96.5861 21.5253 107.103 11.008 120.077 11.0078ZM120.597 19.3594C111.947 19.3594 104.936 26.3712 104.936 35.0205C104.936 43.6698 111.947 50.6816 120.597 50.6816C129.246 50.6816 136.258 43.6697 136.258 35.0205C136.258 26.3712 129.246 19.3594 120.597 19.3594Z" fill="black"/>
<path d="M120.077 16.2266C133.051 16.2266 143.569 25.8092 143.569 37.6299C143.569 49.4506 133.051 59.0332 120.077 59.0332C107.103 59.0331 96.5859 49.4506 96.5859 37.6299C96.586 25.8092 107.103 16.2267 120.077 16.2266ZM120.597 19.3594C111.947 19.3594 104.936 26.3712 104.936 35.0205C104.936 43.6698 111.947 50.6816 120.597 50.6816C129.246 50.6816 136.258 43.6697 136.258 35.0205C136.258 26.3712 129.246 19.3594 120.597 19.3594Z" fill="#D2FE00"/>
<path d="M136.26 37.1139H143.579L143.234 30.9434L141.998 31.502L141.417 30.9957L136.051 31.1627L137.199 37.1139H142.524V30.7242L142.169 29.8576L140.394 25.3995L136.26 22.3553L139.329 30.7242L140.394 28.5943L141.498 30.7242" fill="black"/>
<path d="M98.623 24.0601C110.202 4.78659 132.044 8.62889 140.136 27.6831C140.251 27.9543 140.449 28.163 140.688 28.3403L140.679 28.3618C142.61 29.8132 142.443 33.0181 142.391 35.6489C142.37 36.4529 141.701 37.1108 140.897 37.1108H136.12C136.211 36.4269 136.26 35.729 136.26 35.02C136.26 26.3708 129.248 19.359 120.599 19.3589C111.949 19.3589 104.937 26.3707 104.937 35.02C104.937 35.4943 104.96 35.9637 105.001 36.4273C100.713 48.0011 97.6855 61.6692 82.2001 60.1743C59.9197 58.0235 69.2949 22.2749 46.6074 23.3921C45.7723 23.4336 45.0628 22.7858 45.0419 21.9507C44.9584 19.1526 44.3112 14.7054 46.2949 14.0581C56.965 11.6047 66.9879 19.4553 71.4775 28.5698C74.286 34.2704 76.291 53.6065 86.3036 49.2632C93.0165 46.3497 94.7184 30.5751 98.623 24.0601Z" fill="black"/>
</svg>
