<svg width="101" height="33" viewBox="0 0 101 33" fill="none" xmlns="http://www.w3.org/2000/svg">
<path d="M12.4096 13.8801C12.4096 13.9915 12.3654 14.0983 12.2866 14.1771C12.2079 14.2558 12.101 14.3001 11.9896 14.3001H10.7596C10.6376 14.3001 10.5206 14.2516 10.4344 14.1654C10.3481 14.0791 10.2996 13.9621 10.2996 13.8401V7.70009C10.2996 7.54096 10.2364 7.38835 10.1239 7.27583C10.0114 7.16331 9.85878 7.10009 9.69965 7.10009H9.20965C9.07148 7.09971 8.93641 7.0611 8.81976 6.98863C8.7031 6.91617 8.60953 6.81274 8.54965 6.69009C8.40965 6.41676 8.39631 6.13342 8.50965 5.84009C8.5443 5.74664 8.60784 5.66595 8.69181 5.60879C8.77577 5.55162 8.87617 5.52068 8.97965 5.52009H9.69965C9.7897 5.51979 9.8786 5.49988 9.96035 5.46171C10.0421 5.42354 10.1148 5.36799 10.1736 5.29881C10.2323 5.22963 10.2758 5.14843 10.301 5.06067C10.3262 4.97292 10.3325 4.88065 10.3196 4.79009C10.2063 4.09676 10.3496 3.28009 10.7496 2.34009C10.8674 2.05865 11.0571 1.81368 11.2996 1.63009C12.4063 0.783424 13.693 0.576758 15.1596 1.01009C15.2739 1.04336 15.3775 1.10483 15.463 1.19004C15.5485 1.27525 15.6137 1.38205 15.6539 1.5027C15.6941 1.62335 15.7083 1.75481 15.6955 1.88755C15.6826 2.02028 15.6431 2.15096 15.5796 2.27009C15.2663 2.85009 14.5463 3.00676 13.4196 2.74009C13.2713 2.70716 13.1164 2.72731 12.9826 2.79693C12.8489 2.86655 12.745 2.98111 12.6896 3.12009C12.483 3.62009 12.373 4.17009 12.3596 4.77009C12.3538 4.91747 12.4043 5.06155 12.5009 5.17302C12.5975 5.28448 12.7329 5.35495 12.8796 5.37009L13.5896 5.46009C13.8045 5.47335 14.0052 5.57141 14.1478 5.73269C14.2903 5.89397 14.3629 6.10527 14.3496 6.32009C14.3364 6.53492 14.2383 6.73568 14.077 6.8782C13.9158 7.02073 13.7045 7.09335 13.4896 7.08009H13.0296C12.8652 7.08009 12.7075 7.14541 12.5912 7.26168C12.475 7.37796 12.4096 7.53566 12.4096 7.70009V13.8801Z" fill="#353539" fill-opacity="0.996"/>
<path d="M17.7195 4.33979C18.4264 4.33979 18.9995 3.76671 18.9995 3.05979C18.9995 2.35286 18.4264 1.77979 17.7195 1.77979C17.0125 1.77979 16.4395 2.35286 16.4395 3.05979C16.4395 3.76671 17.0125 4.33979 17.7195 4.33979Z" fill="#353539" fill-opacity="0.996"/>
<path d="M25.14 6.99997C22.1 6.98997 22.91 11.83 22.96 13.77C22.9627 13.8425 22.9504 13.9149 22.924 13.9827C22.8976 14.0505 22.8575 14.1124 22.8062 14.1647C22.7548 14.217 22.6933 14.2586 22.6252 14.287C22.5571 14.3154 22.4839 14.33 22.41 14.33L21.48 14.32C21.3155 14.32 21.1578 14.2546 21.0416 14.1384C20.9253 14.0221 20.86 13.8644 20.86 13.7C20.84 9.76997 19.88 5.03997 25.15 5.06997C30.43 5.08997 29.42 9.81997 29.35 13.75C29.3473 13.9127 29.2809 14.0678 29.1649 14.1819C29.0489 14.296 28.8927 14.36 28.73 14.36H27.8C27.7251 14.36 27.6511 14.3451 27.5823 14.316C27.5135 14.287 27.4515 14.2445 27.4 14.1912C27.3485 14.1378 27.3087 14.0747 27.2829 14.0057C27.2571 13.9367 27.2459 13.8633 27.25 13.79C27.33 11.86 28.19 7.01997 25.14 6.99997Z" fill="#353539" fill-opacity="0.996"/>
<path d="M36.2197 13.86C31.2297 16.75 28.5497 9.58005 33.0497 8.88005C33.9364 8.74671 34.9597 8.71005 36.1197 8.77005C36.2568 8.77944 36.3936 8.74769 36.5125 8.67886C36.6314 8.61004 36.7271 8.50728 36.7873 8.38375C36.8474 8.26021 36.8693 8.12153 36.8502 7.98547C36.831 7.84942 36.7717 7.72217 36.6797 7.62005C34.8097 5.46005 33.5297 7.94005 31.9497 7.73005C31.8095 7.7106 31.6776 7.65185 31.5693 7.56058C31.4611 7.46932 31.3809 7.34927 31.338 7.21433C31.2951 7.07938 31.2913 6.93506 31.327 6.79803C31.3627 6.66101 31.4365 6.5369 31.5397 6.44005C33.2931 4.83338 35.3131 4.59338 37.5997 5.72005C37.9803 5.9055 38.3012 6.19412 38.5257 6.55303C38.7502 6.91193 38.8694 7.32669 38.8697 7.75005V13.73C38.8701 13.8878 38.8103 14.0397 38.7025 14.1549C38.5948 14.2701 38.4471 14.3399 38.2897 14.35C37.8431 14.3834 37.4364 14.2434 37.0697 13.93C36.9519 13.8334 36.8075 13.775 36.6557 13.7625C36.5038 13.75 36.3518 13.784 36.2197 13.86ZM36.4597 10.26C35.1664 10.1467 34.2564 10.1834 33.7297 10.37C33.5604 10.4308 33.4063 10.5275 33.2779 10.6532C33.1495 10.779 33.0499 10.9308 32.9862 11.0983C32.9224 11.2657 32.896 11.4448 32.9087 11.6229C32.9214 11.8011 32.9729 11.9741 33.0597 12.13C33.3731 12.67 33.9664 12.8934 34.8397 12.8C35.9264 12.6867 36.6131 12.0434 36.8997 10.87C36.9172 10.8015 36.9194 10.7299 36.906 10.6603C36.8926 10.5906 36.8641 10.5245 36.8222 10.4666C36.7804 10.4086 36.7264 10.3601 36.6638 10.3245C36.6012 10.2888 36.5316 10.2668 36.4597 10.26Z" fill="#353539" fill-opacity="0.996"/>
<path d="M44.9507 7.00022C41.9407 6.98022 42.7307 11.7702 42.7807 13.6802C42.7834 13.7528 42.7712 13.8251 42.7447 13.893C42.7183 13.9608 42.6782 14.0227 42.6269 14.075C42.5756 14.1273 42.514 14.1688 42.4459 14.1972C42.3778 14.2256 42.3046 14.2402 42.2307 14.2402L41.3207 14.2302C41.1563 14.2302 40.9986 14.1649 40.8823 14.0486C40.766 13.9324 40.7007 13.7747 40.7007 13.6102C40.6907 9.73022 39.7407 5.05022 44.9607 5.08022C50.1807 5.12022 49.1707 9.79022 49.1007 13.6702C49.0981 13.8329 49.0316 13.9881 48.9156 14.1022C48.7996 14.2163 48.6434 14.2802 48.4807 14.2802L47.5607 14.2702C47.4876 14.2689 47.4155 14.2533 47.3486 14.2243C47.2817 14.1953 47.2214 14.1535 47.1711 14.1014C47.1208 14.0492 47.0816 13.9878 47.0558 13.9206C47.03 13.8535 47.018 13.7819 47.0207 13.7102C47.1007 11.8002 47.9607 7.02022 44.9507 7.00022Z" fill="#353539" fill-opacity="0.996"/>
<path d="M52.8097 9.77996C52.8164 10.5266 53.013 11.21 53.3997 11.83C53.5605 12.0933 53.8189 12.2835 54.1197 12.36C55.453 12.72 56.5064 12.4533 57.2797 11.56C57.3737 11.4516 57.489 11.3636 57.6183 11.3015C57.7476 11.2394 57.8883 11.2044 58.0317 11.1988C58.1751 11.1932 58.3181 11.217 58.4519 11.2688C58.5857 11.3206 58.7075 11.3993 58.8097 11.5L58.8597 11.54C58.9549 11.6337 59.0291 11.7467 59.0772 11.8714C59.1253 11.9961 59.1463 12.1296 59.1387 12.2631C59.1312 12.3965 59.0952 12.5268 59.0333 12.6452C58.9714 12.7637 58.8849 12.8676 58.7797 12.95C55.7397 15.3366 53.1897 15.0333 51.1297 12.04C50.863 11.6466 50.7264 10.9 50.7197 9.79996C50.7064 8.69329 50.833 7.94329 51.0997 7.54996C53.1064 4.52329 55.6497 4.17663 58.7297 6.50996C58.8363 6.59084 58.9244 6.69356 58.9881 6.81123C59.0518 6.9289 59.0897 7.05882 59.0992 7.1923C59.1086 7.32578 59.0895 7.45975 59.043 7.58523C58.9965 7.71072 58.9238 7.82484 58.8297 7.91996L58.7797 7.95996C58.6795 8.06249 58.5593 8.14342 58.4266 8.19774C58.294 8.25207 58.1516 8.27864 58.0082 8.27583C57.8649 8.27302 57.7236 8.24089 57.5932 8.1814C57.4627 8.12191 57.3458 8.03634 57.2497 7.92996C56.463 7.04996 55.4064 6.79996 54.0797 7.17996C53.781 7.26121 53.5262 7.45495 53.3697 7.71996C52.9897 8.34663 52.803 9.03329 52.8097 9.77996Z" fill="#353539" fill-opacity="0.996"/>
<path d="M69.021 12.22C68.641 13.46 67.5943 14.1833 65.881 14.39C63.1343 14.7233 61.4943 13.4867 60.961 10.68C59.741 4.24999 68.931 2.64999 69.691 9.50999C69.7051 9.63893 69.6918 9.7694 69.6519 9.89284C69.612 10.0163 69.5465 10.1299 69.4596 10.2262C69.3727 10.3225 69.2664 10.3994 69.1478 10.4517C69.0291 10.5041 68.9007 10.5308 68.771 10.53H63.691C63.5053 10.5289 63.3256 10.5924 63.1827 10.7098C63.0397 10.8273 62.9423 10.9913 62.9069 11.1741C62.8715 11.3568 62.9004 11.547 62.9887 11.7121C63.077 11.8773 63.2191 12.0073 63.391 12.08C65.1243 12.7933 66.4376 12.7267 67.331 11.88C67.4861 11.7337 67.6873 11.6181 67.9041 11.5505C68.121 11.483 68.3417 11.4673 68.5327 11.5057C68.7238 11.5441 68.8748 11.6347 68.9629 11.7636C69.051 11.8924 69.0714 12.0527 69.021 12.22ZM63.061 8.93999L67.301 9.01999C67.3391 9.02008 67.3758 9.00565 67.4037 8.97965C67.4315 8.95365 67.4484 8.91801 67.451 8.87999V8.80999C67.4571 8.56266 67.4083 8.31645 67.3075 8.08548C67.2067 7.85451 67.0558 7.64332 66.8635 7.46402C66.6712 7.28472 66.4413 7.14083 66.1869 7.04061C65.9324 6.94039 65.6586 6.88581 65.381 6.87999H65.061C64.5023 6.868 63.9622 7.05394 63.5592 7.39701C63.1561 7.74008 62.923 8.21227 62.911 8.70999V8.77999C62.9096 8.80051 62.9125 8.8211 62.9194 8.84047C62.9263 8.85984 62.9371 8.87758 62.9512 8.89258C62.9653 8.90759 62.9823 8.91954 63.0012 8.92769C63.02 8.93585 63.0404 8.94004 63.061 8.93999Z" fill="#353539" fill-opacity="0.996"/>
<path d="M18.1587 5.25056L17.2787 5.24902C16.9695 5.24848 16.7183 5.49877 16.7178 5.80805L16.7039 13.728C16.7034 14.0373 16.9537 14.2885 17.263 14.289L18.143 14.2905C18.4522 14.2911 18.7034 14.0408 18.7039 13.7315L18.7178 5.81154C18.7183 5.50226 18.468 5.2511 18.1587 5.25056Z" fill="#353539" fill-opacity="0.996"/>
<path d="M68.9691 16.3102C69.0158 16.4302 69.0091 16.8435 68.9491 17.5502C68.9091 18.0902 68.9425 18.4168 69.0491 18.5302C69.2025 18.6902 69.5658 18.7335 70.1391 18.6602C70.2117 18.6515 70.2853 18.6588 70.3549 18.6817C70.4246 18.7046 70.4886 18.7424 70.5426 18.7927C70.5967 18.8429 70.6395 18.9044 70.6682 18.973C70.697 19.0416 70.7109 19.1156 70.7091 19.1902C70.6958 19.7035 70.6458 20.0202 70.5591 20.1402C70.3991 20.3602 70.1491 20.4435 69.8091 20.3902C69.6358 20.3568 69.5058 20.3468 69.4191 20.3602C69.2841 20.3858 69.1622 20.4577 69.0746 20.5636C68.987 20.6695 68.9391 20.8027 68.9391 20.9402V27.0702C68.9391 27.1868 68.8917 27.2988 68.8073 27.3813C68.7229 27.4638 68.6085 27.5102 68.4891 27.5102H67.2991C67.1745 27.5102 67.0549 27.4606 66.9668 27.3725C66.8787 27.2843 66.8291 27.1648 66.8291 27.0402V20.8302C66.8291 20.7188 66.7849 20.6119 66.7061 20.5332C66.6274 20.4544 66.5205 20.4102 66.4091 20.4102H65.6091C65.4792 20.4102 65.3545 20.3585 65.2627 20.2666C65.1708 20.1747 65.1191 20.0501 65.1191 19.9202V19.1402C65.1191 19.0049 65.1729 18.8752 65.2685 18.7795C65.3642 18.6839 65.4939 18.6302 65.6291 18.6302H66.4091C66.5001 18.6295 66.5895 18.6062 66.6693 18.5625C66.7491 18.5188 66.8168 18.456 66.8663 18.3797C66.9159 18.3034 66.9457 18.216 66.9532 18.1253C66.9607 18.0346 66.9455 17.9435 66.9091 17.8602C66.4425 16.7735 66.9058 16.1302 68.2991 15.9302C68.4371 15.9105 68.5777 15.9371 68.699 16.0058C68.8202 16.0746 68.9152 16.1816 68.9691 16.3102Z" fill="#353539" fill-opacity="0.996"/>
<path d="M35.8695 27.0602C35.3828 26.3602 35.5095 25.6002 36.2495 24.7802C36.3537 24.667 36.4277 24.5297 36.4644 24.381C36.5011 24.2324 36.4994 24.0772 36.4595 23.9302C36.4195 23.7768 36.3095 23.5202 36.1295 23.1602C34.4095 19.6702 38.6995 17.8502 41.5195 18.6102C41.6695 18.6515 41.8282 18.6468 41.9746 18.5969C42.121 18.5469 42.2482 18.4539 42.3395 18.3302C42.6928 17.8635 43.2295 17.6035 43.9495 17.5502C44.0945 17.5386 44.2384 17.5829 44.3518 17.674C44.4652 17.7651 44.5395 17.8961 44.5595 18.0402C44.6461 18.7135 44.4061 19.1302 43.8395 19.2902C43.7526 19.3124 43.6714 19.3527 43.601 19.4084C43.5305 19.4641 43.4724 19.5341 43.4301 19.6139C43.3878 19.6937 43.3624 19.7817 43.3554 19.8723C43.3484 19.9628 43.36 20.054 43.3895 20.1402C44.2895 22.7335 43.5395 24.4402 41.1395 25.2602C40.1895 25.5802 38.9595 25.2302 38.0195 25.1602C37.9379 25.1532 37.8559 25.1636 37.7785 25.1906C37.7011 25.2176 37.63 25.2607 37.5699 25.3172C37.5097 25.3736 37.4617 25.4421 37.4289 25.5184C37.3961 25.5946 37.3793 25.677 37.3795 25.7602V26.0602C37.3794 26.1619 37.4191 26.2596 37.4901 26.3324C37.5611 26.4053 37.6578 26.4475 37.7595 26.4502C40.1695 26.5002 45.0095 25.8302 44.4995 29.7602C44.4542 30.1471 44.2731 30.5023 43.9895 30.7602C42.0895 32.4702 38.3695 32.3302 36.2995 31.5102C36.062 31.415 35.8474 31.2702 35.6711 31.0864C35.4948 30.9025 35.3612 30.6841 35.2799 30.4469C35.1986 30.2097 35.1716 29.9595 35.2009 29.7146C35.2303 29.4696 35.3151 29.2358 35.4495 29.0302C35.5828 28.8302 35.7561 28.4035 35.9695 27.7502C36.0096 27.6363 36.0215 27.5141 36.004 27.394C35.9866 27.2739 35.9405 27.1594 35.8695 27.0602ZM41.7295 21.9002C41.7295 21.3962 41.5293 20.913 41.173 20.5566C40.8166 20.2003 40.3334 20.0002 39.8295 20.0002C39.3256 20.0002 38.8423 20.2003 38.486 20.5566C38.1296 20.913 37.9295 21.3962 37.9295 21.9002C37.9295 22.4041 38.1296 22.8873 38.486 23.2437C38.8423 23.6 39.3256 23.8002 39.8295 23.8002C40.3334 23.8002 40.8166 23.6 41.173 23.2437C41.5293 22.8873 41.7295 22.4041 41.7295 21.9002ZM42.3796 29.2348C42.3798 29.1113 42.3557 28.989 42.3086 28.8749C42.2616 28.7608 42.1925 28.657 42.1054 28.5696C42.0182 28.4822 41.9147 28.4128 41.8008 28.3653C41.6868 28.3179 41.5646 28.2934 41.4412 28.2932L38.0412 28.2872C37.9177 28.2869 37.7954 28.311 37.6813 28.3581C37.5672 28.4051 37.4634 28.4742 37.376 28.5613C37.2886 28.6485 37.2192 28.752 37.1717 28.866C37.1243 28.9799 37.0998 29.1021 37.0996 29.2256L37.0994 29.3256C37.0991 29.449 37.1233 29.5713 37.1703 29.6854C37.2173 29.7995 37.2864 29.9033 37.3735 29.9907C37.4607 30.0781 37.5642 30.1476 37.6782 30.195C37.7921 30.2424 37.9143 30.2669 38.0378 30.2672L41.4378 30.2732C41.5612 30.2734 41.6835 30.2493 41.7976 30.2022C41.9117 30.1552 42.0155 30.0861 42.1029 29.999C42.1903 29.9118 42.2598 29.8083 42.3072 29.6944C42.3546 29.5804 42.3792 29.4582 42.3794 29.3348L42.3796 29.2348Z" fill="#353539" fill-opacity="0.996"/>
<path d="M18.1108 19.4102C20.5208 17.1302 23.4208 18.4502 24.0808 21.3702C24.0941 21.43 24.1008 21.4903 24.1008 21.5502V26.9402C24.1008 27.0887 24.0428 27.2311 23.9397 27.3362C23.8365 27.4412 23.6966 27.5002 23.5508 27.5002H22.4908C22.3466 27.5002 22.2082 27.4425 22.1054 27.3396C22.0025 27.2368 21.9434 27.0969 21.9408 26.9502L21.9208 21.8002C21.9206 21.5758 21.8733 21.354 21.7819 21.1491C21.6904 20.9442 21.5569 20.7608 21.39 20.6108C21.2231 20.4609 21.0265 20.3477 20.813 20.2787C20.5995 20.2097 20.3739 20.1863 20.1508 20.2102L19.9608 20.2202C19.4865 20.2552 19.0426 20.4677 18.7168 20.8158C18.3909 21.1639 18.2068 21.6222 18.2008 22.1002L18.1408 27.0002C18.1382 27.147 18.078 27.2868 17.9733 27.3897C17.8685 27.4926 17.7276 27.5502 17.5808 27.5502H16.8408C16.687 27.5502 16.5394 27.4891 16.4307 27.3803C16.3219 27.2715 16.2608 27.124 16.2608 26.9702L16.2408 22.0302C16.2396 21.7904 16.1903 21.5533 16.0957 21.3331C16.0012 21.1129 15.8634 20.9142 15.6906 20.7489C15.5179 20.5836 15.3137 20.4551 15.0903 20.3711C14.8669 20.2871 14.629 20.2494 14.3908 20.2602H14.1708C13.9423 20.2589 13.7158 20.3028 13.5042 20.3896C13.2925 20.4763 13.1 20.6041 12.9375 20.7657C12.775 20.9272 12.6457 21.1194 12.5571 21.3312C12.4684 21.5431 12.4221 21.7704 12.4208 22.0002L12.4008 27.1002C12.4008 27.2089 12.3576 27.3132 12.2807 27.3901C12.2038 27.467 12.0995 27.5102 11.9908 27.5102H10.7508C10.6917 27.5102 10.6332 27.4985 10.5786 27.4759C10.524 27.4533 10.4744 27.4202 10.4326 27.3784C10.3908 27.3366 10.3576 27.287 10.335 27.2324C10.3124 27.1778 10.3008 27.1193 10.3008 27.0602L10.3208 19.1502C10.3208 19.0692 10.3369 18.9891 10.3682 18.9144C10.3994 18.8397 10.4453 18.772 10.503 18.7153C10.5607 18.6585 10.6291 18.6138 10.7043 18.5837C10.7794 18.5536 10.8598 18.5388 10.9408 18.5402C11.1608 18.5468 11.4641 18.6535 11.8508 18.8602C12.0115 18.9494 12.1916 18.9988 12.376 19.004C12.5604 19.0092 12.7438 18.9702 12.9108 18.8902C14.7241 18.0168 16.2241 18.1868 17.4108 19.4002C17.5029 19.4931 17.6279 19.5463 17.7587 19.5481C17.8896 19.55 18.016 19.5005 18.1108 19.4102Z" fill="#353539" fill-opacity="0.996"/>
<path d="M49.98 18.3799C55.21 18.3899 54.21 23.0799 54.16 26.9699C54.1574 27.1326 54.0909 27.2878 53.9749 27.4019C53.8589 27.516 53.7027 27.58 53.54 27.5799H52.62C52.5461 27.5799 52.4729 27.5653 52.4048 27.5369C52.3368 27.5085 52.2752 27.4669 52.2239 27.4146C52.1725 27.3624 52.1325 27.3005 52.106 27.2326C52.0796 27.1648 52.0673 27.0925 52.07 27.0199C52.15 25.0999 52.99 20.3099 49.97 20.2999C46.96 20.2899 47.77 25.0899 47.83 26.9999C47.8327 27.0725 47.8205 27.1449 47.7941 27.2127C47.7676 27.2805 47.7275 27.3424 47.6762 27.3947C47.6249 27.447 47.5633 27.4885 47.4952 27.5169C47.4272 27.5453 47.354 27.56 47.28 27.5599H46.36C46.1956 27.5599 46.0379 27.4946 45.9216 27.3784C45.8053 27.2621 45.74 27.1044 45.74 26.9399C45.71 23.0499 44.75 18.3599 49.98 18.3799Z" fill="#353539" fill-opacity="0.996"/>
<path d="M61.9399 27.2302C61.821 27.1351 61.676 27.0785 61.5242 27.0677C61.3724 27.057 61.2209 27.0928 61.0899 27.1702C56.1199 30.0802 53.4099 22.9202 57.8999 22.2002C58.7865 22.0669 59.8099 22.0269 60.9699 22.0802C61.1069 22.0896 61.2437 22.0578 61.3626 21.989C61.4815 21.9202 61.5772 21.8174 61.6374 21.6939C61.6975 21.5704 61.7194 21.4317 61.7003 21.2956C61.6811 21.1596 61.6218 21.0323 61.5299 20.9302C59.6499 18.7802 58.3799 21.2602 56.7999 21.0602C56.6582 21.046 56.524 20.9909 56.4134 20.9015C56.3027 20.8121 56.2203 20.6922 56.176 20.5561C56.1317 20.42 56.1274 20.2735 56.1635 20.1342C56.1997 19.9948 56.2748 19.8684 56.3799 19.7702C58.1265 18.1569 60.1465 17.9102 62.4399 19.0302C62.8189 19.2149 63.1387 19.502 63.3632 19.8589C63.5876 20.2159 63.7077 20.6285 63.7099 21.0502L63.7399 27.0202C63.7428 27.1796 63.6841 27.3341 63.5761 27.4514C63.4681 27.5687 63.319 27.6399 63.1599 27.6502C62.7199 27.6835 62.3132 27.5435 61.9399 27.2302ZM61.2999 23.5902C60.0199 23.4769 59.1199 23.5135 58.5999 23.7002C58.4317 23.7609 58.2787 23.8572 58.1514 23.9825C58.0241 24.1077 57.9257 24.2589 57.8628 24.4255C57.8 24.592 57.7744 24.77 57.7877 24.947C57.801 25.1239 57.8529 25.2957 57.9399 25.4502C58.2465 25.9835 58.8332 26.2035 59.6999 26.1102C60.7799 25.9969 61.4599 25.3569 61.7399 24.1902C61.7559 24.1214 61.7569 24.0499 61.7428 23.9806C61.7286 23.9114 61.6996 23.846 61.6578 23.789C61.616 23.732 61.5624 23.6847 61.5006 23.6504C61.4388 23.6161 61.3703 23.5955 61.2999 23.5902Z" fill="#353539" fill-opacity="0.996"/>
<path d="M31.9696 27.1798C31.8534 27.084 31.7107 27.026 31.5606 27.0135C31.4105 27.001 31.2601 27.0346 31.1296 27.1098C26.1996 29.9898 23.5296 22.9098 27.9796 22.1998C28.853 22.0665 29.863 22.0265 31.0096 22.0798C31.144 22.0851 31.277 22.0511 31.3923 21.9819C31.5075 21.9127 31.6001 21.8113 31.6585 21.6902C31.7169 21.5691 31.7387 21.4335 31.7211 21.3002C31.7036 21.1669 31.6474 21.0416 31.5596 20.9398C29.7096 18.8198 28.4496 21.2698 26.8896 21.0698C26.7493 21.0526 26.6168 20.9955 26.5078 20.9054C26.3989 20.8152 26.3181 20.6957 26.2749 20.561C26.2318 20.4263 26.2282 20.2821 26.2644 20.1455C26.3007 20.0088 26.3754 19.8853 26.4796 19.7898C28.2063 18.1965 30.203 17.9531 32.4696 19.0598C32.8477 19.2436 33.1663 19.5297 33.3891 19.8851C33.612 20.2406 33.73 20.6511 33.7296 21.0698L33.7496 26.9798C33.75 27.1333 33.6915 27.2813 33.5858 27.3944C33.4802 27.5075 33.3351 27.5772 33.1796 27.5898C32.733 27.6231 32.3296 27.4865 31.9696 27.1798ZM31.2796 23.5598C30.0196 23.4798 29.1396 23.5398 28.6396 23.7398C28.4764 23.8048 28.329 23.904 28.2076 24.0305C28.0862 24.157 27.9937 24.3078 27.9366 24.4725C27.8795 24.6371 27.8591 24.8116 27.8769 24.9838C27.8947 25.1561 27.9502 25.3219 28.0396 25.4698C28.353 25.9831 28.933 26.1831 29.7796 26.0698C30.833 25.9298 31.483 25.2831 31.7296 24.1298C31.7426 24.0621 31.7409 23.9925 31.7246 23.9255C31.7082 23.8586 31.6777 23.796 31.635 23.7419C31.5923 23.6878 31.5385 23.6436 31.4771 23.6121C31.4158 23.5807 31.3485 23.5629 31.2796 23.5598Z" fill="#353539" fill-opacity="0.996"/>
<path d="M79.9602 25.51C79.5802 26.75 78.5335 27.4733 76.8202 27.68C74.0802 28.0133 72.4468 26.78 71.9202 23.98C70.7002 17.56 79.8702 15.97 80.6202 22.81C80.6342 22.9381 80.6211 23.0677 80.5818 23.1905C80.5426 23.3132 80.4779 23.4263 80.3921 23.5225C80.3063 23.6186 80.2013 23.6957 80.0838 23.7487C79.9663 23.8017 79.8391 23.8294 79.7102 23.83H74.6402C74.4552 23.8309 74.2763 23.8959 74.1339 24.0138C73.9914 24.1318 73.8943 24.2955 73.8589 24.477C73.8235 24.6586 73.8522 24.8467 73.9399 25.0096C74.0277 25.1724 74.1691 25.2997 74.3402 25.37C76.0668 26.0833 77.3768 26.0167 78.2702 25.17C78.4253 25.0238 78.6265 24.9081 78.8434 24.8406C79.0602 24.773 79.2809 24.7573 79.4719 24.7957C79.663 24.8342 79.814 24.9247 79.9021 25.0536C79.9902 25.1825 80.0106 25.3427 79.9602 25.51ZM74.0902 22.32L78.2302 22.26C78.2726 22.26 78.3133 22.2431 78.3433 22.2131C78.3733 22.1831 78.3902 22.1424 78.3902 22.1V22.01C78.3829 21.5152 78.1557 21.0438 77.7583 20.6989C77.3609 20.354 76.8258 20.1638 76.2702 20.17H76.0102C75.7337 20.173 75.4605 20.2246 75.2062 20.3218C74.952 20.419 74.7216 20.5599 74.5283 20.7365C74.3351 20.913 74.1828 21.1217 74.0801 21.3505C73.9775 21.5793 73.9265 21.8239 73.9302 22.07V22.16C73.9302 22.2024 73.947 22.2431 73.977 22.2731C74.007 22.3031 74.0477 22.32 74.0902 22.32Z" fill="#353539" fill-opacity="0.996"/>
<path d="M88.0393 20.9601L85.3393 20.1601C85.2433 20.1321 85.1428 20.1232 85.0435 20.1337C84.9442 20.1442 84.8482 20.174 84.7609 20.2214C84.6735 20.2687 84.5967 20.3328 84.5346 20.4098C84.4726 20.4868 84.4266 20.5752 84.3993 20.6701L84.2993 21.0101C84.2733 21.0974 84.2648 21.189 84.2744 21.2796C84.284 21.3702 84.3114 21.4581 84.3551 21.538C84.3988 21.618 84.4579 21.6885 84.529 21.7455C84.6001 21.8025 84.6818 21.8448 84.7693 21.8701L87.4093 22.6501C87.6129 22.7093 87.7982 22.8156 87.9493 22.9601C89.0426 23.9601 89.1893 25.2201 88.3893 26.7401C88.235 27.03 87.982 27.251 87.6793 27.3601C86.1093 27.9201 82.3593 28.1401 82.1593 25.7401C82.1456 25.5603 82.1918 25.3839 82.2913 25.2363C82.3907 25.0887 82.5382 24.9775 82.7126 24.9186C82.8871 24.8597 83.0795 24.8562 83.2621 24.9086C83.4448 24.961 83.6084 25.0665 83.7293 25.2101C84.4293 26.0367 85.3427 26.2301 86.4693 25.7901C86.6198 25.7323 86.75 25.6315 86.8435 25.5001C86.937 25.3688 86.9897 25.2128 86.9951 25.0517C87.0004 24.8905 86.9581 24.7314 86.8735 24.5942C86.7889 24.4569 86.6657 24.3477 86.5193 24.2801C86.126 24.1001 85.306 23.8201 84.0593 23.4401C79.6593 22.1001 83.2293 16.4401 87.9593 19.0901C88.1949 19.2203 88.3789 19.4272 88.4808 19.6764C88.5827 19.9256 88.5963 20.2021 88.5193 20.4601L88.4393 20.7401C88.4278 20.781 88.4083 20.8192 88.3819 20.8525C88.3555 20.8858 88.3227 20.9135 88.2854 20.9339C88.2482 20.9544 88.2073 20.9673 88.165 20.9718C88.1228 20.9763 88.08 20.9723 88.0393 20.9601Z" fill="#353539" fill-opacity="0.996"/>
</svg>
