<svg width="1104" height="206" viewBox="0 0 1104 206" fill="none" xmlns="http://www.w3.org/2000/svg">
<path d="M1073.84 147.372L1083.26 149.146C1095.57 151.475 1104 155.689 1104 166.779C1104 179.199 1092.69 185.964 1077.94 185.964C1062.3 185.964 1052.43 176.981 1050.99 165.226H1064.08C1065.63 172.102 1070.29 175.65 1078.16 175.65C1085.37 175.65 1091.03 172.878 1091.03 168.109C1091.03 163.341 1086.59 161.123 1079.94 159.903L1070.4 158.129C1061.08 156.354 1052.54 151.919 1052.54 141.384C1052.54 129.961 1063.97 123.529 1077.72 123.529C1090.8 123.529 1101.01 130.183 1103 142.271H1090.03C1088.59 136.171 1083.37 133.954 1076.83 133.954C1070.95 133.954 1065.41 136.061 1065.41 140.829C1065.41 144.489 1068.29 146.374 1073.84 147.372Z" fill="#D4D8DB"/>
<path d="M988.178 184.523V124.861H1001.37V133.4C1004.48 128.188 1010.58 123.752 1020.34 123.752C1035.09 123.752 1040.19 132.956 1040.19 147.484V184.523H1026.99V151.143C1026.99 142.161 1025.88 134.509 1015.35 134.509C1006.36 134.509 1001.37 140.719 1001.37 152.807V184.523H988.178Z" fill="#D4D8DB"/>
<path d="M959.046 184.523V124.861H972.243V184.523H959.046ZM959.046 117.209V104.123H972.243V117.209H959.046Z" fill="#D4D8DB"/>
<path d="M916.99 185.964C902.02 185.964 887.049 176.316 887.049 154.691C887.049 133.066 902.02 123.529 916.99 123.529C931.85 123.529 946.821 133.066 946.821 154.691C946.821 176.316 931.85 185.964 916.99 185.964ZM916.99 175.096C925.419 175.096 932.959 169.329 932.959 154.691C932.959 140.164 925.308 134.508 916.99 134.508C908.562 134.508 900.911 140.164 900.911 154.691C900.911 169.329 908.451 175.096 916.99 175.096Z" fill="#D4D8DB"/>
<path d="M861.687 184.523V124.861H874.884V184.523H861.687ZM861.687 117.209V104.123H874.884V117.209H861.687Z" fill="#D4D8DB"/>
<path d="M849.906 184.523H840.924C828.282 184.523 824.733 181.862 824.733 168.887V134.842H815.307V124.861H824.733V109.336H837.93V124.861H849.906V134.842H837.93V166.891C837.93 172.879 838.928 174.321 844.805 174.321H849.906V184.523Z" fill="#D4D8DB"/>
<path d="M792.059 184.522V176.094C788.621 181.861 783.409 185.964 773.872 185.964C759.234 185.964 754.133 176.76 754.133 162.121V124.86H767.329V158.573C767.329 167.555 768.438 175.096 778.641 175.096C787.512 175.096 792.059 169.219 792.059 157.131V124.86H805.367V184.522H792.059Z" fill="#D4D8DB"/>
<path d="M725.667 184.523V104.123H738.863V184.523H725.667Z" fill="#D4D8DB"/>
<path d="M683.611 185.964C668.64 185.964 653.669 176.316 653.669 154.691C653.669 133.066 668.64 123.529 683.611 123.529C698.471 123.529 713.442 133.066 713.442 154.691C713.442 176.316 698.471 185.964 683.611 185.964ZM683.611 175.096C692.039 175.096 699.58 169.329 699.58 154.691C699.58 140.164 691.928 134.508 683.611 134.508C675.183 134.508 667.531 140.164 667.531 154.691C667.531 169.329 675.072 175.096 683.611 175.096Z" fill="#D4D8DB"/>
<path d="M607.643 135.396L617.624 137.503C630.266 140.275 645.569 144.6 645.569 161.013C645.569 177.204 630.044 185.964 613.742 185.964C594.114 185.964 581.582 175.651 579.143 159.128H593.226C595.334 169.219 602.653 174.209 614.075 174.209C623.834 174.209 630.931 169.885 630.931 162.565C630.931 155.357 624.056 152.03 614.518 150.034L604.538 148.038C592.783 145.487 581.472 139.499 581.472 125.97C581.472 109.89 597.662 102.682 612.079 102.682C627.05 102.682 640.801 109.335 643.795 125.748H629.822C627.382 117.653 619.509 114.437 611.413 114.437C604.76 114.437 595.999 117.209 595.999 124.972C595.999 130.738 600.878 133.843 607.643 135.396Z" fill="#D4D8DB"/>
<path d="M517.161 134.286C510.064 134.286 502.634 137.613 500.86 148.924H532.576C531.911 140.275 526.033 134.286 517.161 134.286ZM532.687 166.668H545.551C541.78 178.423 531.245 185.964 517.716 185.964C498.642 185.964 487.109 173.1 487.109 154.58C487.109 135.728 500.416 123.529 517.161 123.529C535.016 123.529 546.216 137.28 546.216 155.467C546.216 156.354 546.216 157.242 546.105 158.351H500.638C501.969 170.549 509.842 175.096 517.494 175.096C525.59 175.096 530.247 171.658 532.687 166.668Z" fill="#D4D8DB"/>
<path d="M475.034 124.861V177.869C475.034 197.165 463.944 205.371 447.199 205.371C432.45 205.371 423.024 198.496 420.806 186.741H434.002C435.666 191.842 439.325 194.947 447.199 194.947C456.182 194.947 461.948 190.733 461.948 179.976V173.101C458.178 179.533 451.524 183.081 443.207 183.081C429.123 183.081 417.479 172.546 417.479 153.361C417.479 134.398 429.123 123.752 443.207 123.752C451.524 123.752 458.178 127.412 461.948 133.733V124.861H475.034ZM446.977 172.435C455.294 172.435 462.503 167.223 462.503 153.361C462.503 139.61 455.294 134.509 446.977 134.509C438.106 134.509 431.563 141.052 431.563 153.361C431.563 165.892 438.106 172.435 446.977 172.435Z" fill="#D4D8DB"/>
<path d="M407.268 184.523H393.96C393.517 181.639 393.295 179.2 393.295 176.649C389.303 182.859 382.76 185.964 373.001 185.964C361.8 185.964 352.485 179.532 352.485 168.664C352.485 154.359 368.565 149.923 392.629 147.594V146.263C392.629 136.948 387.417 133.51 380.32 133.51C373.001 133.51 368.454 137.281 367.9 143.935H354.925C355.923 131.625 365.904 123.419 380.431 123.419C397.065 123.419 405.604 130.96 405.604 148.26V161.678C405.604 170.993 406.159 178.978 407.268 184.523ZM393.184 159.571V156.688C376.993 158.24 366.569 160.569 366.569 167.999C366.569 172.989 370.672 176.316 376.882 176.316C385.532 176.316 393.184 172.435 393.184 159.571Z" fill="#D4D8DB"/>
<path d="M315.872 184.523V124.861H328.736V135.618C331.619 128.742 337.274 124.75 345.37 124.528C346.257 124.528 347.255 124.528 348.253 124.639V138.058C346.035 137.725 344.483 137.614 342.819 137.614C333.726 137.614 329.068 142.05 329.068 153.805V184.523H315.872Z" fill="#D4D8DB"/>
<path d="M274.685 134.286C267.588 134.286 260.158 137.613 258.383 148.924H290.099C289.434 140.275 283.557 134.286 274.685 134.286ZM290.21 166.668H303.074C299.304 178.423 288.769 185.964 275.239 185.964C256.165 185.964 244.632 173.1 244.632 154.58C244.632 135.728 257.94 123.529 274.685 123.529C292.539 123.529 303.74 137.28 303.74 155.467C303.74 156.354 303.74 157.242 303.629 158.351H258.161C259.492 170.549 267.366 175.096 275.018 175.096C283.113 175.096 287.771 171.658 290.21 166.668Z" fill="#D4D8DB"/>
<path d="M189.597 184.523V104.123H202.794V150.145L225.306 124.861H241.275L219.096 148.925L243.826 184.523H228.078L210.113 158.573L202.794 166.447V184.523H189.597Z" fill="#D4D8DB"/>
<path d="M147.542 185.964C132.571 185.964 117.6 176.316 117.6 154.691C117.6 133.066 132.571 123.529 147.542 123.529C162.402 123.529 177.373 133.066 177.373 154.691C177.373 176.316 162.402 185.964 147.542 185.964ZM147.542 175.096C155.97 175.096 163.511 169.329 163.511 154.691C163.511 140.164 155.859 134.508 147.542 134.508C139.114 134.508 131.462 140.164 131.462 154.691C131.462 169.329 139.003 175.096 147.542 175.096Z" fill="#D4D8DB"/>
<path d="M80.5427 184.523V124.861H93.4066V135.618C96.2899 128.742 101.946 124.75 110.041 124.528C110.928 124.528 111.926 124.528 112.924 124.639V138.058C110.706 137.725 109.154 137.614 107.49 137.614C98.397 137.614 93.7393 142.05 93.7393 153.805V184.523H80.5427Z" fill="#D4D8DB"/>
<path d="M4.21411 184.523V104.123H35.4868C51.4558 104.123 64.6524 108.115 64.6524 124.306C64.6524 131.847 61.3255 138.279 55.5589 141.717C63.0998 144.711 67.9793 150.588 67.9793 160.458C67.9793 177.869 55.1153 184.523 37.7047 184.523H4.21411ZM18.4088 172.546H37.9265C48.018 172.546 53.1192 168.11 53.1192 160.347C53.1192 152.363 48.018 148.592 37.4829 148.592H18.4088V172.546ZM18.4088 137.614H36.8175C45.0238 137.614 50.125 134.287 50.125 126.524C50.125 119.538 44.9129 116.1 36.8175 116.1H18.4088V137.614Z" fill="#D4D8DB"/>
<path d="M521.602 31.6046C514.504 31.6046 507.074 34.9314 505.3 46.2428H537.016C536.351 37.5929 530.473 31.6046 521.602 31.6046ZM537.127 63.9862H549.991C546.221 75.7411 535.685 83.282 522.156 83.282C503.082 83.282 491.549 70.4181 491.549 51.8985C491.549 33.0462 504.856 20.8477 521.602 20.8477C539.456 20.8477 550.656 34.5987 550.656 52.7857C550.656 53.6728 550.656 54.56 550.545 55.669H505.078C506.409 67.8675 514.282 72.4142 521.934 72.4142C530.03 72.4142 534.687 68.9765 537.127 63.9862Z" fill="#D4D8DB"/>
<path d="M466.179 81.8419V73.192C462.409 79.624 455.533 83.2836 447.105 83.2836C432.8 83.2836 421.267 71.7504 421.267 52.1218C421.267 32.6041 432.8 21.071 447.105 21.071C455.533 21.071 462.409 24.7305 466.179 31.0516V1.44238H479.376V81.8419H466.179ZM450.987 72.5267C459.304 72.5267 466.734 66.5383 466.734 52.1218C466.734 37.7053 459.304 31.8279 450.987 31.8279C441.782 31.8279 435.35 39.147 435.35 52.1218C435.35 65.2075 441.782 72.5267 450.987 72.5267Z" fill="#D4D8DB"/>
<path d="M382.871 83.282C367.9 83.282 352.929 73.6341 352.929 52.0094C352.929 30.3847 367.9 20.8477 382.871 20.8477C397.731 20.8477 412.702 30.3847 412.702 52.0094C412.702 73.6341 397.731 83.282 382.871 83.282ZM382.871 72.4142C391.299 72.4142 398.84 66.6477 398.84 52.0094C398.84 37.482 391.188 31.8263 382.871 31.8263C374.443 31.8263 366.791 37.482 366.791 52.0094C366.791 66.6477 374.332 72.4142 382.871 72.4142Z" fill="#D4D8DB"/>
<path d="M332.407 61.4356H345.382C342.61 75.1866 330.522 83.282 317.325 83.282C299.36 83.282 288.492 70.4181 288.492 51.8985C288.492 33.8225 300.136 20.8477 317.991 20.8477C331.631 20.8477 342.499 29.7193 344.717 42.805H331.853C330.411 35.8186 324.866 31.8263 317.991 31.8263C309.895 31.8263 302.354 37.8147 302.354 51.8985C302.354 66.315 310.006 72.4142 317.991 72.4142C325.753 72.4142 331.076 67.5348 332.407 61.4356Z" fill="#D4D8DB"/>
<path d="M263.123 81.8419V73.192C259.353 79.624 252.477 83.2836 244.049 83.2836C229.743 83.2836 218.21 71.7504 218.21 52.1218C218.21 32.6041 229.743 21.071 244.049 21.071C252.477 21.071 259.353 24.7305 263.123 31.0516V1.44238H276.32V81.8419H263.123ZM247.93 72.5267C256.248 72.5267 263.678 66.5383 263.678 52.1218C263.678 37.7053 256.248 31.8279 247.93 31.8279C238.726 31.8279 232.294 39.147 232.294 52.1218C232.294 65.2075 238.726 72.5267 247.93 72.5267Z" fill="#D4D8DB"/>
<path d="M208.11 81.8419H194.802C194.359 78.9586 194.137 76.5189 194.137 73.9683C190.145 80.1785 183.602 83.2836 173.843 83.2836C162.643 83.2836 153.327 76.8516 153.327 65.9838C153.327 51.6782 169.407 47.2424 193.472 44.9136V43.5828C193.472 34.2676 188.26 30.8298 181.162 30.8298C173.843 30.8298 169.296 34.6003 168.742 41.254H155.767C156.765 28.9446 166.746 20.7383 181.273 20.7383C197.908 20.7383 206.447 28.2792 206.447 45.579V58.9974C206.447 68.3126 207.001 76.2971 208.11 81.8419ZM194.026 56.8903V54.007C177.835 55.5596 167.411 57.8884 167.411 65.3184C167.411 70.3087 171.514 73.6356 177.725 73.6356C186.374 73.6356 194.026 69.7543 194.026 56.8903Z" fill="#D4D8DB"/>
<path d="M128.417 81.8407V73.4126C124.979 79.1792 119.767 83.2824 110.23 83.2824C95.5915 83.2824 90.4902 74.078 90.4902 59.4397V22.1787H103.687V55.8911C103.687 64.8736 104.796 72.4146 114.998 72.4146C123.87 72.4146 128.417 66.5371 128.417 54.4494V22.1787H141.724V81.8407H128.417Z" fill="#D4D8DB"/>
<path d="M39.2571 83.2828C15.5254 83.2828 0 66.2048 0 41.586C0 17.078 15.5254 0 39.2571 0C62.9889 0 78.5143 17.078 78.5143 41.586C78.5143 53.5627 74.8547 63.7651 68.3119 71.0843L77.738 80.8431L69.6426 88.7167L59.5511 78.1816C53.7845 81.5085 46.909 83.2828 39.2571 83.2828ZM39.2571 71.417C43.2494 71.417 47.0199 70.5298 50.3467 68.7555L40.8097 58.7748L48.9051 51.0121L58.553 60.9927C61.769 56.2242 63.6543 49.6814 63.6543 41.586C63.6543 22.2901 52.7864 11.8659 39.2571 11.8659C25.7278 11.8659 14.7492 22.2901 14.7492 41.586C14.7492 60.9927 25.7278 71.417 39.2571 71.417Z" fill="#D4D8DB"/>
</svg>
