<svg width="82" height="64" viewBox="0 0 82 64" fill="none" xmlns="http://www.w3.org/2000/svg">
<path d="M10.0976 37.6298L22.2447 32.6816V36.9981L14.1466 40.4724V46.3681L10.0976 47.9474V37.6298ZM19.3677 13.5203C25.6544 13.5203 30.8756 18.3633 30.8756 24.8907V37.8403C30.6625 42.9991 35.0312 47.1051 40.2523 47.1051C45.3669 47.1051 49.4159 42.8938 49.4159 37.8403V23.4168L45.3669 24.996V37.7351C45.3669 40.5777 43.0227 42.7886 40.1458 42.7886C37.3754 42.7886 34.9246 40.4724 34.9246 37.7351V24.8907C35.0312 16.2577 27.9986 9.30908 19.3677 9.30908C10.6303 9.30908 3.49121 16.2577 3.49121 24.8907V50.1583L7.85992 48.579V24.8907C7.85992 18.5738 12.9745 13.5203 19.3677 13.5203ZM61.2434 47.1051C66.4646 47.1051 70.6202 42.8938 70.6202 37.8403V15.2048L66.5711 16.7841V37.8403C66.5711 40.5777 64.0138 42.8938 61.1369 42.8938C58.2599 42.8938 55.9157 40.5777 55.9157 37.8403V21.1006L51.547 22.6798V37.8403C51.6536 42.8938 55.9157 47.1051 61.2434 47.1051ZM72.8578 14.4679V37.8403C72.8578 44.1572 67.6367 49.316 61.2434 49.316C56.5551 49.316 52.2929 46.4734 50.4815 42.578C48.6701 46.4734 44.8341 49.316 40.2523 49.316C33.9656 49.316 28.851 44.1572 28.851 37.8403V24.8907C28.851 19.7319 24.5889 15.626 19.3677 15.626C14.2532 15.626 10.0976 19.8372 10.0976 24.8907V35.103L22.2447 30.1548V25.8383L14.1466 29.4178V24.8907C14.1466 22.0481 16.4908 19.8372 19.3677 19.8372C22.0316 19.8372 24.5889 22.0481 24.5889 24.8907C24.6954 24.996 24.5889 37.8403 24.5889 37.8403C24.5889 46.3681 31.5149 53.5273 40.1458 53.5273C44.1948 53.5273 47.7111 51.7375 50.4815 49.316C53.2519 51.7375 57.0878 53.5273 61.1369 53.5273C69.8743 53.5273 76.8003 46.3681 76.8003 37.8403V12.8886L72.8578 14.4679Z" fill="white"/>
</svg>
