<svg width="780" height="114" viewBox="0 0 780 114" fill="none" xmlns="http://www.w3.org/2000/svg">
<path d="M53.6858 61.85C62.1591 61.85 68.9791 64.1233 74.1458 68.67C79.4158 73.1133 82.0508 79.21 82.0508 86.96C82.0508 91.8167 80.8108 96.26 78.3308 100.29C75.8508 104.217 72.4408 107.317 68.1008 109.59C63.8641 111.863 59.0591 113 53.6858 113H0.365789V1.4H51.8258C57.1991 1.4 62.0041 2.53666 66.2408 4.81C70.4775 7.08333 73.7325 10.1833 76.0058 14.11C78.3825 18.0367 79.5708 22.3767 79.5708 27.13C79.5708 34.57 77.0391 40.615 71.9758 45.265C66.9125 49.915 60.2991 52.24 52.1358 52.24H20.8258V61.85H53.6858ZM20.8258 20.775V33.33H52.4458C54.3058 33.33 55.9075 32.8133 57.2508 31.78C58.5941 30.7467 59.2658 29.1967 59.2658 27.13C59.2658 25.0633 58.5941 23.5133 57.2508 22.48C55.9075 21.3433 54.3058 20.775 52.4458 20.775H20.8258ZM54.6158 93.625C56.4758 93.625 58.0775 93.0567 59.4208 91.92C60.8675 90.7833 61.5908 89.1817 61.5908 87.115C61.5908 85.0483 60.8675 83.4983 59.4208 82.465C58.0775 81.3283 56.4758 80.76 54.6158 80.76H20.8258V93.625H54.6158ZM202.586 113H180.421L169.416 84.48H126.636L115.631 113H93.4663L136.866 1.4H159.186L202.586 113ZM161.976 65.57L148.026 29.61L134.076 65.57H161.976ZM314.749 113H262.049L255.229 21.86H241.434V113H220.974V1.4H273.364L280.339 92.54H294.289V1.4H314.749V113ZM444.751 113H424.911V98.43C417.471 108.763 406.414 113.93 391.741 113.93C381.511 113.93 372.262 111.45 363.996 106.49C355.729 101.427 349.219 94.555 344.466 85.875C339.816 77.195 337.491 67.6367 337.491 57.2C337.491 46.35 340.126 36.6367 345.396 28.06C350.769 19.38 357.796 12.6117 366.476 7.755C375.156 2.89833 384.404 0.469998 394.221 0.469998C401.454 0.469998 408.274 1.4 414.681 3.26C421.087 5.01666 426.409 6.92833 430.646 8.995C434.882 11.0617 437.466 12.5083 438.396 13.335V37.515C432.506 32.7617 426.461 28.99 420.261 26.2C412.511 22.6867 404.606 20.93 396.546 20.93C390.346 20.93 384.249 22.4283 378.256 25.425C372.262 28.3183 367.354 32.5033 363.531 37.98C359.811 43.4567 357.951 49.8633 357.951 57.2C357.951 64.2267 359.552 70.53 362.756 76.11C365.959 81.5867 370.247 85.875 375.621 88.975C381.097 91.9717 387.039 93.47 393.446 93.47C401.092 93.47 407.241 91.8683 411.891 88.665C416.541 85.4617 419.796 82.0517 421.656 78.435C423.619 74.715 424.601 72.1317 424.601 70.685H384.766V51.775H444.751V113ZM553.463 113.93L489.138 82.93V113H468.678V1.4H489.138V31.935C498.954 26.975 520.034 16.7967 552.378 1.4V23.875C520.034 39.375 498.954 49.3983 489.138 53.945V61.075L553.463 91.145V113.93ZM615.586 113.93C605.356 113.93 595.901 111.398 587.221 106.335C578.541 101.168 571.618 94.245 566.451 85.565C561.388 76.885 558.856 67.43 558.856 57.2C558.856 46.97 561.388 37.515 566.451 28.835C571.618 20.155 578.541 13.2833 587.221 8.21999C595.901 3.05333 605.356 0.469998 615.586 0.469998C625.816 0.469998 635.271 3.05333 643.951 8.21999C652.631 13.2833 659.503 20.155 664.566 28.835C669.733 37.515 672.316 46.97 672.316 57.2C672.316 67.43 669.733 76.885 664.566 85.565C659.503 94.245 652.631 101.168 643.951 106.335C635.271 111.398 625.816 113.93 615.586 113.93ZM615.586 93.47C622.2 93.47 628.245 91.8683 633.721 88.665C639.301 85.3583 643.693 80.9667 646.896 75.49C650.203 69.91 651.856 63.8133 651.856 57.2C651.856 50.5867 650.203 44.5417 646.896 39.065C643.693 33.485 639.301 29.0933 633.721 25.89C628.245 22.5833 622.2 20.93 615.586 20.93C608.973 20.93 602.876 22.5833 597.296 25.89C591.82 29.0933 587.428 33.485 584.121 39.065C580.918 44.5417 579.316 50.5867 579.316 57.2C579.316 63.71 580.918 69.755 584.121 75.335C587.428 80.915 591.871 85.3583 597.451 88.665C603.031 91.8683 609.076 93.47 615.586 93.47ZM779.975 113.93L715.65 82.93V113H695.19V1.4H715.65V31.935C725.466 26.975 746.546 16.7967 778.89 1.4V23.875C746.546 39.375 725.466 49.3983 715.65 53.945V61.075L779.975 91.145V113.93Z" fill="url(#paint0_linear_4179_9745)"/>
<defs>
<linearGradient id="paint0_linear_4179_9745" x1="384.916" y1="61.9968" x2="384.916" y2="107.581" gradientUnits="userSpaceOnUse">
<stop stop-color="white"/>
<stop offset="1" stop-color="#BDBDBD"/>
</linearGradient>
</defs>
</svg>
