<svg width="68" height="24" viewBox="0 0 68 24" fill="none" xmlns="http://www.w3.org/2000/svg">
<path d="M27.8633 22.4097V8.64596C27.8633 6.1134 29.9163 4.06042 32.4487 4.06042L36.5126 4.06655C39.0377 4.07156 41.0821 6.12003 41.0821 8.64526V11.5749C41.0821 14.1075 39.0291 16.1604 36.4966 16.1604H30.7542" stroke="#939598" stroke-width="0.847738" stroke-miterlimit="10" stroke-linecap="round" stroke-linejoin="round"/>
<path d="M42.2178 4.05859H43.9806C45.0199 4.05859 45.8623 4.90111 45.8623 5.94045V16.222" stroke="#939598" stroke-width="0.847738" stroke-miterlimit="10" stroke-linecap="round" stroke-linejoin="round"/>
<path d="M45.4844 2.46582L44.685 1.66631C44.4865 1.46797 44.4865 1.14633 44.685 0.94799L45.4839 0.148984C45.6826 -0.0496615 46.0047 -0.0496615 46.2032 0.148984L47.0021 0.94799C47.2006 1.14633 47.2006 1.46797 47.0021 1.66631L46.2027 2.46582C46.0044 2.66416 45.6828 2.66416 45.4844 2.46582Z" fill="#32BCAD"/>
<path d="M49.2441 4.04944H50.9924C51.8918 4.04944 52.7543 4.40674 53.3901 5.04257L57.4792 9.13164C58.0088 9.66137 58.8676 9.66137 59.3973 9.13164L63.4714 5.05754C64.1073 4.42171 64.9697 4.06441 65.8691 4.06441H67.2905" stroke="#939598" stroke-width="0.847738" stroke-miterlimit="10" stroke-linecap="round" stroke-linejoin="round"/>
<path d="M49.2441 16.1321H50.9924C51.8918 16.1321 52.7543 15.7748 53.3901 15.139L57.4792 11.0499C58.0088 10.5202 58.8676 10.5202 59.3973 11.0499L63.4714 15.124C64.1073 15.7598 64.9697 16.1171 65.8691 16.1171H67.2905" stroke="#939598" stroke-width="0.847738" stroke-miterlimit="10" stroke-linecap="round" stroke-linejoin="round"/>
<path d="M17.4406 18.7445C16.5633 18.7445 15.738 18.4028 15.1176 17.7827L11.7633 14.4283C11.5278 14.1922 11.1173 14.1929 10.8819 14.4283L7.51535 17.7949C6.8949 18.4151 6.06966 18.7567 5.19228 18.7567H4.53125L8.77958 23.0049C10.1063 24.3317 12.2574 24.3317 13.5843 23.0049L17.8447 18.7445H17.4406Z" fill="#32BCAD"/>
<path d="M5.19209 6.87971C6.06947 6.87971 6.89471 7.22133 7.51516 7.84149L10.8817 11.2086C11.1241 11.4512 11.52 11.4521 11.7631 11.2083L15.1174 7.85376C15.7378 7.23361 16.563 6.89198 17.4404 6.89198H17.8444L13.5842 2.63159C12.2572 1.30477 10.1061 1.30477 8.77938 2.63159L4.53125 6.87972L5.19209 6.87971Z" fill="#32BCAD"/>
<path d="M21.3685 10.4159L18.794 7.84131C18.7373 7.86401 18.6759 7.87818 18.6111 7.87818H17.4405C16.8353 7.87818 16.2429 8.12365 15.8153 8.55159L12.4611 11.9059C12.1472 12.2198 11.7348 12.3768 11.3227 12.3768C10.9102 12.3768 10.4981 12.2198 10.1843 11.9062L6.81743 8.53933C6.38979 8.11129 5.79737 7.86592 5.19219 7.86592H3.75284C3.69145 7.86592 3.63408 7.85145 3.57992 7.83105L0.995114 10.4159C-0.331705 11.7427 -0.331705 13.8937 0.995114 15.2206L3.57982 17.8053C3.63407 17.7849 3.69145 17.7704 3.75284 17.7704H5.19219C5.79737 17.7704 6.38979 17.525 6.81743 17.0971L10.184 13.7306C10.7925 13.1226 11.8532 13.1224 12.4611 13.7308L15.8153 17.0848C16.2429 17.5128 16.8353 17.7582 17.4405 17.7582H18.6111C18.6759 17.7582 18.7373 17.7724 18.794 17.7951L21.3685 15.2205C22.6953 13.8937 22.6953 11.7427 21.3685 10.4159Z" fill="#32BCAD"/>
<path d="M31.358 21.2397C31.168 21.2397 30.9468 21.2855 30.7281 21.3359V22.1746C30.8796 22.23 31.0526 22.2566 31.2185 22.2566C31.6391 22.2566 31.8385 22.1147 31.8385 21.7442C31.8385 21.396 31.6752 21.2397 31.358 21.2397ZM30.5862 22.7974V21.1387H30.7016L30.7137 21.2109C30.9083 21.1652 31.1775 21.1051 31.3698 21.1051C31.5262 21.1051 31.6752 21.1289 31.8001 21.23C31.9444 21.348 31.9901 21.5377 31.9901 21.7442C31.9901 21.961 31.9178 22.1651 31.7208 22.278C31.5838 22.355 31.3987 22.3862 31.2329 22.3862C31.0621 22.3862 30.8988 22.3597 30.7281 22.3093V22.7974H30.5862Z" fill="#939598"/>
<path d="M33.0459 21.2348C32.6251 21.2348 32.4377 21.3672 32.4377 21.7373C32.4377 22.0954 32.6227 22.2566 33.0459 22.2566C33.464 22.2566 33.6515 22.1267 33.6515 21.7565C33.6515 21.3984 33.4666 21.2348 33.0459 21.2348ZM33.5866 22.2566C33.4472 22.3574 33.2598 22.3863 33.0459 22.3863C32.8271 22.3863 32.6395 22.3551 32.5026 22.2566C32.3487 22.1485 32.2861 21.9704 32.2861 21.7471C32.2861 21.5257 32.3487 21.3456 32.5026 21.2348C32.6395 21.1365 32.8271 21.1051 33.0459 21.1051C33.2621 21.1051 33.4472 21.1365 33.5866 21.2348C33.743 21.3456 33.803 21.5257 33.803 21.7443C33.803 21.9681 33.7405 22.1485 33.5866 22.2566Z" fill="#939598"/>
<path d="M35.578 22.3527L35.1093 21.3457H35.0995L34.6381 22.3527H34.5107L34.0107 21.1387H34.167L34.5829 22.1578H34.5925L35.0443 21.1387H35.1741L35.6381 22.1578H35.6478L36.054 21.1387H36.2053L35.7054 22.3527H35.578Z" fill="#939598"/>
<path d="M37.1121 21.2324C36.7228 21.2324 36.5905 21.4054 36.5664 21.6556H37.6578C37.6459 21.3792 37.5039 21.2324 37.1121 21.2324ZM37.1074 22.3862C36.8741 22.3862 36.7228 22.3526 36.6026 22.2516C36.4607 22.129 36.4126 21.9512 36.4126 21.747C36.4126 21.5522 36.4776 21.3455 36.6387 21.2277C36.7732 21.134 36.9391 21.1051 37.1121 21.1051C37.2685 21.1051 37.4487 21.1219 37.5976 21.223C37.7732 21.3406 37.8069 21.5475 37.8069 21.7829H36.5617C36.5664 22.0328 36.6482 22.2542 37.1193 22.2542C37.3429 22.2542 37.552 22.218 37.7467 22.1843V22.3117C37.5448 22.3479 37.3212 22.3862 37.1074 22.3862Z" fill="#939598"/>
<path d="M38.2139 22.3526V21.1387H38.3292L38.3414 21.2109C38.5985 21.1461 38.7187 21.1051 38.9447 21.1051H38.9615V21.2397H38.9278C38.738 21.2397 38.6226 21.2661 38.3559 21.3359V22.3526H38.2139Z" fill="#939598"/>
<path d="M39.7852 21.2324C39.3959 21.2324 39.2637 21.4054 39.2395 21.6556H40.3309C40.319 21.3792 40.177 21.2324 39.7852 21.2324ZM39.7805 22.3862C39.5472 22.3862 39.3959 22.3526 39.2757 22.2516C39.1337 22.129 39.0857 21.9512 39.0857 21.747C39.0857 21.5522 39.1507 21.3455 39.3118 21.2277C39.4463 21.134 39.6122 21.1051 39.7852 21.1051C39.9416 21.1051 40.1218 21.1219 40.2707 21.223C40.4463 21.3406 40.48 21.5475 40.48 21.7829H39.2348C39.2395 22.0328 39.3213 22.2542 39.7924 22.2542C40.0159 22.2542 40.225 22.218 40.4199 22.1843V22.3117C40.2179 22.3479 39.9943 22.3862 39.7805 22.3862Z" fill="#939598"/>
<path d="M42.0335 21.3167C41.8821 21.2614 41.7091 21.2348 41.5432 21.2348C41.1226 21.2348 40.9229 21.3769 40.9229 21.747C40.9229 22.0977 41.0864 22.2516 41.4036 22.2516C41.5936 22.2516 41.8148 22.2059 42.0335 22.1578V21.3167ZM42.06 22.3527L42.048 22.2804C41.8532 22.3261 41.584 22.3863 41.3916 22.3863C41.2356 22.3863 41.0864 22.3647 40.9614 22.2613C40.8172 22.1435 40.7715 21.9536 40.7715 21.747C40.7715 21.5306 40.8436 21.3262 41.0407 21.2156C41.1777 21.1364 41.3628 21.1051 41.5311 21.1051C41.6994 21.1051 41.8629 21.134 42.0335 21.1821V20.6268H42.1754V22.3527H42.06Z" fill="#939598"/>
<path d="M44.2549 21.2399C44.0649 21.2399 43.8438 21.2856 43.625 21.336V22.1724C43.779 22.2301 43.9496 22.2567 44.1155 22.2567C44.5361 22.2567 44.7355 22.1148 44.7355 21.7444C44.7355 21.3961 44.5721 21.2399 44.2549 21.2399ZM44.6179 22.2781C44.4808 22.3551 44.2957 22.3863 44.1298 22.3863C43.9496 22.3863 43.7693 22.3551 43.5867 22.295L43.5794 22.3528H43.4832V20.6268H43.625V21.206C43.8198 21.163 44.0817 21.1052 44.2668 21.1052C44.4232 21.1052 44.5721 21.129 44.697 21.2301C44.8414 21.3481 44.887 21.5378 44.887 21.7444C44.887 21.9611 44.8148 22.1653 44.6179 22.2781Z" fill="#939598"/>
<path d="M45.0754 22.8189V22.6869C45.145 22.6939 45.2101 22.6989 45.2557 22.6989C45.4313 22.6989 45.5369 22.6483 45.6354 22.4487L45.6812 22.3527L45.0466 21.1387H45.2101L45.7534 22.1867H45.7629L46.2797 21.1387H46.4408L45.7581 22.5018C45.6331 22.7493 45.4985 22.8309 45.2509 22.8309C45.1955 22.8309 45.1356 22.8262 45.0754 22.8189Z" fill="#939598"/>
<path d="M48.3953 21.6603H47.9242V22.0859H48.3976C48.7221 22.0859 48.8448 22.0497 48.8448 21.8719C48.8448 21.6818 48.6766 21.6603 48.3953 21.6603ZM48.3089 20.9704H47.9242V21.403H48.3112C48.6309 21.403 48.7582 21.3647 48.7582 21.1843C48.7582 20.9922 48.5972 20.9704 48.3089 20.9704ZM49.0396 22.2373C48.8663 22.3479 48.6572 22.3526 48.2751 22.3526H47.5564V20.7061H48.2583C48.5876 20.7061 48.7895 20.7108 48.9578 20.8119C49.078 20.884 49.126 20.9945 49.126 21.1387C49.126 21.3116 49.054 21.4272 48.8663 21.5042V21.5136C49.078 21.5619 49.215 21.6701 49.215 21.9032C49.215 22.0617 49.1573 22.1651 49.0396 22.2373Z" fill="#939598"/>
<path d="M50.6531 21.8431C50.5111 21.831 50.367 21.8239 50.2156 21.8239C49.968 21.8239 49.8813 21.8744 49.8813 21.9872C49.8813 22.093 49.9535 22.1508 50.1433 22.1508C50.302 22.1508 50.4919 22.1148 50.6531 22.0785V21.8431ZM50.7251 22.3527L50.7155 22.2805C50.5087 22.3312 50.2685 22.3863 50.0568 22.3863C49.9269 22.3863 49.7876 22.3694 49.689 22.2973C49.5978 22.2325 49.5544 22.1267 49.5544 22.0041C49.5544 21.8669 49.6146 21.7396 49.7587 21.6748C49.8861 21.6147 50.0568 21.61 50.2132 21.61C50.3405 21.61 50.5111 21.6171 50.6531 21.6268V21.605C50.6531 21.4152 50.528 21.3527 50.1867 21.3527C50.0544 21.3527 49.8933 21.3597 49.7395 21.3742V21.129C49.9101 21.1149 50.1026 21.1051 50.2612 21.1051C50.4726 21.1051 50.6915 21.122 50.8261 21.218C50.9654 21.3167 50.992 21.4538 50.992 21.6338V22.3526L50.7251 22.3527Z" fill="#939598"/>
<path d="M52.5767 22.3526V21.6819C52.5767 21.4609 52.4639 21.3815 52.2618 21.3815C52.1129 21.3815 51.9254 21.4199 51.7667 21.4585V22.3526H51.4277V21.1387H51.7042L51.7162 21.2156C51.93 21.1605 52.1682 21.1051 52.3653 21.1051C52.5142 21.1051 52.6657 21.1266 52.7811 21.2301C52.8771 21.3167 52.9133 21.4367 52.9133 21.6099V22.3526H52.5767Z" fill="#939598"/>
<path d="M53.8711 22.3862C53.7148 22.3862 53.544 22.3647 53.4191 22.2589C53.2701 22.1386 53.2268 21.9488 53.2268 21.7442C53.2268 21.5521 53.2893 21.3429 53.4744 21.2253C53.6259 21.1266 53.8133 21.1051 54.008 21.1051C54.1475 21.1051 54.2845 21.1148 54.4359 21.1289V21.3886C54.3132 21.3768 54.1666 21.367 54.0489 21.367C53.7267 21.367 53.5754 21.4681 53.5754 21.747C53.5754 22.009 53.6883 22.1218 53.9527 22.1218C54.1065 22.1218 54.287 22.093 54.4624 22.0593V22.3092C54.2724 22.3479 54.0657 22.3862 53.8711 22.3862Z" fill="#939598"/>
<path d="M55.4635 21.3597C55.1413 21.3597 54.9994 21.4608 54.9994 21.7372C54.9994 22.0137 55.1389 22.1316 55.4635 22.1316C55.7831 22.1316 55.9224 22.0328 55.9224 21.7564C55.9224 21.48 55.7856 21.3597 55.4635 21.3597ZM56.0451 22.2589C55.8961 22.3597 55.7014 22.3862 55.4635 22.3862C55.2206 22.3862 55.026 22.3574 54.8794 22.2589C54.7111 22.1484 54.6509 21.9657 54.6509 21.747C54.6509 21.528 54.7111 21.3429 54.8794 21.2324C55.026 21.1339 55.2206 21.1051 55.4635 21.1051C55.7039 21.1051 55.8961 21.1339 56.0451 21.2324C56.2134 21.3429 56.2711 21.528 56.2711 21.7443C56.2711 21.9633 56.211 22.1484 56.0451 22.2589Z" fill="#939598"/>
<path d="M58.2278 22.3862C58.0237 22.3862 57.8025 22.3527 57.6365 22.2156C57.4395 22.0521 57.3794 21.7998 57.3794 21.528C57.3794 21.2854 57.4563 20.9969 57.7135 20.8287C57.9129 20.699 58.1605 20.6725 58.4105 20.6725C58.5934 20.6725 58.7808 20.6845 58.9851 20.7013V20.9969C58.8096 20.9825 58.5934 20.9704 58.4251 20.9704C57.9562 20.9704 57.7568 21.1485 57.7568 21.528C57.7568 21.9153 57.9418 22.0883 58.288 22.0883C58.5139 22.0883 58.7663 22.0426 59.0211 21.9896V22.2828C58.7663 22.3335 58.4994 22.3862 58.2278 22.3862Z" fill="#939598"/>
<path d="M60.017 21.3214C59.7357 21.3214 59.6275 21.4225 59.6059 21.6076H60.4233C60.4135 21.4105 60.2982 21.3214 60.017 21.3214ZM59.9664 22.3863C59.767 22.3863 59.5867 22.3624 59.452 22.2516C59.3079 22.1316 59.2573 21.9512 59.2573 21.7443C59.2573 21.5593 59.3175 21.3527 59.4858 21.2324C59.6347 21.1267 59.8247 21.1051 60.017 21.1051C60.1901 21.1051 60.3944 21.1243 60.5433 21.2277C60.7382 21.3647 60.7549 21.5763 60.7573 21.8262H59.6036C59.6107 22.0114 59.7093 22.1316 60.0506 22.1316C60.2621 22.1316 60.4976 22.1003 60.6973 22.0691V22.307C60.4641 22.3456 60.2093 22.3863 59.9664 22.3863Z" fill="#939598"/>
<path d="M62.2654 22.3526V21.6819C62.2654 21.4609 62.1526 21.3815 61.9505 21.3815C61.8015 21.3815 61.6141 21.4199 61.4554 21.4585V22.3526H61.1165V21.1387H61.3929L61.4049 21.2156C61.6187 21.1605 61.8569 21.1051 62.054 21.1051C62.2029 21.1051 62.3544 21.1266 62.4698 21.2301C62.5658 21.3167 62.602 21.4367 62.602 21.6099V22.3526H62.2654Z" fill="#939598"/>
<path d="M63.5668 22.3863C63.4034 22.3863 63.2543 22.3405 63.1726 22.2132C63.1125 22.1266 63.0835 22.0091 63.0835 21.8455V21.391H62.8384V21.1387H63.0835L63.1197 20.7709H63.4202V21.1387H63.8984V21.391H63.4202V21.7806C63.4202 21.8743 63.4273 21.9536 63.4537 22.0114C63.4898 22.0931 63.5691 22.1242 63.6749 22.1242C63.7541 22.1242 63.8504 22.1122 63.9176 22.1004V22.343C63.8071 22.3648 63.6796 22.3863 63.5668 22.3863Z" fill="#939598"/>
<path d="M64.229 22.3526V21.1387H64.5055L64.5176 21.2156C64.7411 21.1531 64.9069 21.1051 65.1185 21.1051C65.1281 21.1051 65.1425 21.1051 65.1616 21.1074V21.396C65.1232 21.3937 65.0775 21.3937 65.0439 21.3937C64.878 21.3937 64.7531 21.4128 64.5679 21.4562V22.3526L64.229 22.3526Z" fill="#939598"/>
<path d="M66.3938 21.8431C66.2519 21.831 66.1077 21.8239 65.9563 21.8239C65.7087 21.8239 65.622 21.8744 65.622 21.9872C65.622 22.093 65.6943 22.1508 65.8841 22.1508C66.0428 22.1508 66.2326 22.1148 66.3938 22.0785V21.8431ZM66.4658 22.3527L66.4563 22.2805C66.2495 22.3312 66.0092 22.3863 65.7976 22.3863C65.6678 22.3863 65.5284 22.3694 65.4297 22.2973C65.3386 22.2325 65.2952 22.1267 65.2952 22.0041C65.2952 21.8669 65.3554 21.7396 65.4996 21.6748C65.627 21.6147 65.7976 21.61 65.9539 21.61C66.0813 21.61 66.2519 21.6171 66.3938 21.6268V21.605C66.3938 21.4152 66.2687 21.3527 65.9274 21.3527C65.7952 21.3527 65.6341 21.3597 65.4803 21.3742V21.129C65.6509 21.1149 65.8433 21.1051 66.002 21.1051C66.2134 21.1051 66.4323 21.122 66.5668 21.218C66.7062 21.3167 66.7327 21.4538 66.7327 21.6338V22.3526L66.4658 22.3527Z" fill="#939598"/>
<path d="M67.1687 20.6268H67.5076V22.3527H67.1687V20.6268Z" fill="#939598"/>
</svg>
