<svg width="355" height="355" viewBox="0 0 355 355" fill="none" xmlns="http://www.w3.org/2000/svg">
<path fill-rule="evenodd" clip-rule="evenodd" d="M355 152.206C354.236 138.783 347.807 125.598 336.765 115.97L224.344 17.6855C197.46 -5.89516 157.417 -5.89516 130.346 17.6855L17.7362 115.97C5.14045 127.1 0 142.444 0 157.975V202.794C0.751983 216.377 6.6444 229.408 17.7362 239.218L126.774 334.296L130.346 337.313C157.229 360.896 197.273 360.896 224.344 337.313L227.916 334.296L336.952 239.218C347.856 229.597 354.06 216.187 355 202.794V152.206Z" fill="#E62334"/>
<path fill-rule="evenodd" clip-rule="evenodd" d="M212.497 31.2675L325.107 129.552C340.71 143.135 340.71 167.469 325.107 181.053L259.121 238.59L98.3849 98.4255C96.6929 96.9163 94.2487 96.9163 92.5567 98.4255L41.234 143.135C33.9023 149.548 33.9023 161.056 41.234 167.469L153.843 265.755C167.38 277.451 187.307 277.451 200.843 265.755L218.325 250.474L232.05 262.359L212.497 279.337C192.383 296.881 162.303 296.881 142 279.337L29.3904 181.053C13.9747 167.469 13.9747 143.135 29.3904 129.552L142 31.2675C162.115 13.7234 192.195 13.7234 212.497 31.2675ZM95.3767 143.323L190.879 226.705L180.163 236.136C178.505 237.616 176.125 237.646 174.437 236.225L174.335 236.136L85.6009 158.604C83.5675 156.933 83.5336 153.805 85.4992 151.908L85.6009 151.813L95.3767 143.323ZM153.843 44.6612L113.048 80.5042C110.98 82.202 110.98 85.409 113.048 87.2953L256.3 212.179C257.992 213.687 260.437 213.687 262.128 212.179L313.451 167.469C320.783 161.055 320.783 149.548 313.451 143.135L262.128 98.4255C260.437 96.9163 257.992 96.9163 256.3 98.4255L235.809 116.347C233.741 118.045 233.741 121.252 235.809 123.138L268.896 152.002C270.965 153.699 270.965 156.905 268.896 158.792L259.121 167.281L163.807 83.8998L174.522 74.4674C176.215 72.9582 178.658 72.9582 180.35 74.4674L215.318 105.028C217.009 106.537 219.454 106.537 221.146 105.028L241.637 87.1067C243.706 85.409 243.706 82.202 241.637 80.3152L200.843 44.6612C187.307 32.9652 167.378 32.9652 153.843 44.6612Z" fill="white"/>
</svg>
