<svg width="102" height="38" viewBox="0 0 102 38" fill="none" xmlns="http://www.w3.org/2000/svg">
<g clip-path="url(#clip0_903_10257)">
<path fill-rule="evenodd" clip-rule="evenodd" d="M36.3945 11.6144V22.7995H39.1477H41.901V18.4976C41.901 15.6583 41.901 14.1096 41.901 13.9375C41.987 13.5073 42.0731 13.0771 42.3312 12.733C42.6753 12.1307 43.2776 11.8726 43.9659 11.9586C44.9123 12.0446 45.5146 12.5609 45.6867 13.6794C45.6867 13.8515 45.6867 15.5722 45.6867 18.3255V22.7135H48.4399H51.1932V17.5511C51.1932 13.1631 51.1932 12.3028 51.1071 11.8726C50.9351 10.3239 50.4188 9.11932 49.4724 8.25893C48.6981 7.48458 47.7516 7.05438 46.6331 6.8823C46.2029 6.79627 44.9984 6.8823 44.6542 6.96834C43.6218 7.22646 42.8474 7.57062 42.1591 8.34497L41.7289 8.68912V4.55925V0.429382H38.9757H36.3945V11.6144ZM94.901 0.601461C94.7289 0.945617 89.1364 14.4537 89.1364 14.4537C89.1364 14.4537 90.599 14.4537 92.4058 14.4537H95.6753L98.6007 7.48458C100.235 3.61282 101.526 0.429382 101.526 0.429382C101.526 0.429382 100.063 0.429382 98.2565 0.429382H94.987L94.901 0.601461ZM24.349 6.96834C23.1445 7.14042 22.1981 7.48458 21.2516 8.08685C19.3588 9.2914 18.1542 11.3563 17.8101 13.7654C17.638 14.8839 17.724 16.2605 17.9821 17.293C18.6705 19.9602 20.4773 22.0252 22.8003 22.7995C23.6607 23.0576 24.0049 23.1437 25.0373 23.1437C25.8117 23.1437 26.0698 23.1437 26.3279 23.0576C27.4464 22.7995 28.2208 22.3693 28.9091 21.681L29.2532 21.3368V22.0252V22.7135H31.9205H34.5877V14.97V7.22646H31.9205H29.2532V7.91477V8.60308L28.9951 8.34497C28.3929 7.65666 27.5325 7.22646 26.414 6.96834C26.0698 6.8823 25.8977 6.8823 25.2094 6.8823C24.7792 6.96834 24.4351 6.96834 24.349 6.96834ZM59.4529 6.96834C57.9903 7.14042 56.4416 7.82873 55.3231 8.68912C53.1721 10.4959 52.0536 13.3352 52.4838 16.2606C52.914 19.53 55.237 22.0252 58.5065 22.8855C59.1948 23.0576 59.8831 23.1437 60.7435 23.1437C62.2922 23.1437 63.4107 22.8856 64.6153 22.2833C67.0244 21.0787 68.5731 18.9278 68.9172 16.2606C69.0033 15.5722 69.0033 14.4537 68.9172 13.8515C68.7451 12.5609 68.2289 11.2703 67.4546 10.2378C67.1104 9.80763 66.4221 9.03328 65.9919 8.68912C64.7873 7.74269 63.4107 7.14042 61.862 6.96834C61.2597 6.8823 60.0552 6.8823 59.4529 6.96834ZM77.0049 6.96834C75.5422 7.14042 74.0796 7.74269 72.961 8.68912C72.5309 9.03328 71.7565 9.80763 71.4984 10.2378C70.724 11.2703 70.2938 12.5609 70.0357 13.8515C69.9497 14.4537 69.9497 15.6583 70.0357 16.2606C70.552 19.7021 73.0471 22.3693 76.4886 23.0576C77.1769 23.2297 77.5211 23.2297 78.2955 23.2297C79.7581 23.2297 81.0487 22.9716 82.2532 22.2833C85.4367 20.6485 87.1575 17.0349 86.3831 13.3352C85.6948 9.89367 82.9416 7.39854 79.414 6.96834C78.8117 6.8823 77.6071 6.8823 77.0049 6.96834ZM0 7.3125C0 7.3125 1.46266 10.8401 3.26948 15.142C5.0763 19.444 6.53896 22.9716 6.53896 22.9716C6.53896 22.9716 6.02273 24.2622 5.33442 25.8109C4.6461 27.3596 4.12987 28.5641 4.12987 28.6502C4.12987 28.7362 5.42046 28.6502 7.0552 28.6502H9.98052L14.3685 18.0674C16.7776 12.2167 18.7565 7.48458 18.7565 7.39854C18.7565 7.39854 18.1542 7.3125 15.8312 7.39854H12.9058L11.099 11.8726C10.3247 14.2817 9.55033 16.3466 9.55033 16.3466C9.55033 16.3466 8.77597 14.2817 7.74351 11.8726L6.02273 7.39854H3.01136C1.37662 7.3125 0 7.3125 0 7.3125ZM27.0162 11.9586C28.1347 12.2167 28.9951 13.0771 29.3393 14.1956C29.4253 14.6258 29.4253 15.4002 29.3393 15.8304C29.0812 16.9489 28.2208 17.8093 27.1023 18.0674C26.6721 18.1534 25.8977 18.1534 25.4675 18.0674C24.5211 17.8093 23.6607 17.1209 23.3166 16.2606C22.8864 15.3141 23.0584 14.1096 23.5747 13.2492C24.349 12.1307 25.6396 11.7005 27.0162 11.9586ZM61.3458 12.0446C62.5503 12.2167 63.4968 13.1631 63.7549 14.3677C63.8409 14.7979 63.8409 15.4862 63.7549 15.9164C63.4968 17.0349 62.6364 17.8093 61.6039 18.1534C61.2597 18.2394 60.3133 18.2394 59.9692 18.1534C59.1088 17.8953 58.4205 17.293 57.9903 16.5187C57.7321 16.0024 57.7321 15.7443 57.7321 15.142C57.7321 14.6258 57.8182 14.3677 57.9903 13.9375C58.2484 13.4213 58.5925 12.905 59.1088 12.5609C59.625 12.0446 60.4854 11.8726 61.3458 12.0446ZM78.8117 12.0446C79.8442 12.2167 80.7045 12.905 81.0487 13.8515C81.2208 14.2817 81.3068 14.5398 81.3068 15.056C81.3068 15.6583 81.2208 15.9164 81.0487 16.4326C80.7045 17.207 79.9302 17.8093 79.0698 18.0674C78.7257 18.1534 77.7792 18.1534 77.4351 18.0674C76.4026 17.8093 75.5422 16.9489 75.2841 15.8304C75.1981 15.4002 75.1981 14.6258 75.2841 14.1956C75.6283 12.819 76.8328 11.8726 78.2094 11.8726C78.3815 11.9586 78.6396 11.9586 78.8117 12.0446ZM90.513 15.8304C88.8783 16.0024 87.6737 17.207 87.3295 18.7557C87.2435 19.1859 87.2435 19.9602 87.3295 20.3904C87.6737 21.767 88.7062 22.7135 90.0828 23.0576C90.2549 23.0576 90.599 23.1437 90.8571 23.1437C91.8896 23.1437 92.75 22.7995 93.4383 22.1112C94.2127 21.3368 94.4708 20.5625 94.4708 19.53C94.4708 18.2394 93.8685 17.1209 92.836 16.5187C92.1477 15.9164 91.2013 15.7443 90.513 15.8304ZM45.1705 24.2622C44.0519 24.6063 43.5357 25.8969 44.138 26.8433C44.3101 27.1015 44.6542 27.4456 44.9123 27.5317C45.1705 27.6177 45.1705 27.6177 45.6867 27.6177C46.1169 27.6177 46.2029 27.6177 46.461 27.5317C46.8052 27.3596 47.1493 27.0154 47.3214 26.6713C47.7516 25.8109 47.3214 24.7784 46.461 24.3482C46.2029 24.1761 46.1169 24.1761 45.7727 24.1761C45.4286 24.1761 45.3425 24.1761 45.1705 24.2622ZM40.5243 24.3482C39.0617 24.6063 38.1153 25.5528 37.6851 27.1015C37.599 27.3596 37.599 27.6177 37.599 27.9618V28.5641H36.9968H36.3945V29.8547V31.1453H36.9968H37.599V34.2427V37.3401H39.2338H40.8685V34.2427V31.1453H41.987H43.1055V29.8547V28.5641H41.987H40.8685V28.306C40.9545 27.7037 41.2127 27.2735 41.7289 27.1875C42.0731 27.1015 42.5893 27.1015 42.9334 27.2735C43.1055 27.3596 43.1916 27.3596 43.1916 27.3596C43.1916 27.3596 43.1916 26.7573 43.1916 25.983V24.6063L42.9334 24.5203C42.5893 24.3482 42.1591 24.3482 41.5568 24.3482C41.1266 24.2622 40.7825 24.3482 40.5243 24.3482ZM53.6023 28.392C52.914 28.5641 52.3977 28.9083 52.0536 29.3385L51.8815 29.5966V29.0804V28.5641H50.2468H48.612V32.9521V37.3401H50.2468H51.8815V34.931C51.8815 33.5544 51.8815 32.4359 51.8815 32.2638C51.9675 31.9196 52.1396 31.5755 52.3117 31.4034C52.7419 31.0592 53.5162 31.1453 53.8604 31.5755C54.1185 31.9196 54.1185 31.9196 54.1185 34.6729V37.2541H55.7533H57.388V34.3287C57.388 31.2313 57.388 30.8872 57.2159 30.2849C57.0438 29.7687 56.8718 29.3385 56.4416 28.9943C56.0974 28.6502 55.7532 28.392 55.237 28.306C54.8068 28.306 53.9464 28.306 53.6023 28.392ZM61.776 28.306C61.2597 28.392 60.4854 28.6502 60.0552 28.9943C59.1088 29.6826 58.5065 30.7151 58.2484 32.0057C58.1623 32.5219 58.1623 33.4683 58.2484 33.9846C58.4205 34.7589 58.6786 35.5333 59.1088 36.0495C59.711 36.8239 60.4854 37.3401 61.4318 37.5122C61.9481 37.5982 62.8084 37.5982 63.2386 37.4261C63.7549 37.2541 64.099 37.082 64.5292 36.7378L64.8734 36.3937V36.8239V37.2541H66.5081H68.1429V32.8661V28.4781H66.5081H64.8734V28.9083V29.3385L64.6153 29.2524C64.1851 28.8222 63.5828 28.4781 62.8945 28.392C62.6364 28.306 62.0341 28.306 61.776 28.306ZM74.2516 28.392C73.6494 28.4781 73.0471 28.9083 72.7029 29.3385L72.5308 29.5106V28.9943V28.4781H70.8961H69.2614V32.8661V37.2541H70.8961H72.5308V34.7589C72.5308 32.0917 72.5308 32.0917 72.7029 31.6615C72.875 31.3174 73.2192 31.1453 73.5633 31.1453C73.9075 31.1453 74.0795 31.2313 74.3377 31.4034C74.6818 31.7476 74.6818 31.6615 74.6818 34.5868V37.168H76.3166H77.9513V33.9846C77.9513 30.8011 77.9513 30.8011 77.8653 30.457C77.7792 30.2849 77.6932 29.9407 77.6071 29.6826C77.4351 29.3385 77.349 29.2524 77.0909 28.9943C76.7467 28.6502 76.4886 28.4781 76.1445 28.306C75.5422 28.306 74.8539 28.22 74.2516 28.392ZM82.7695 28.392C81.3068 28.6502 80.1883 29.3385 79.5 30.543C79.3279 30.8872 79.1558 31.3174 78.9838 31.7476C78.8977 32.1778 78.8977 32.2638 78.8977 32.9521C78.8977 33.7265 78.8977 33.9846 79.1558 34.5868C79.6721 36.0495 80.8766 37.168 82.5114 37.5122C82.7695 37.5982 83.0276 37.5982 83.6299 37.5982C84.4903 37.5982 84.8344 37.5122 85.4367 37.2541L85.7808 37.082V35.6193V34.1567L85.5227 34.3287C85.0925 34.5868 84.8344 34.6729 84.3182 34.6729C83.8019 34.6729 83.5438 34.6729 83.1997 34.5008C82.8555 34.3287 82.5974 34.0706 82.4253 33.7265C82.3393 33.4683 82.3393 33.4683 82.3393 33.0381C82.3393 32.694 82.3393 32.608 82.4253 32.3498C82.6834 31.6615 83.2857 31.3174 84.1461 31.2313C84.7484 31.2313 85.0065 31.2313 85.8669 31.6615C85.8669 31.6615 85.8669 30.9732 85.8669 30.1989V28.7362L85.6088 28.6502C84.6623 28.306 83.6299 28.22 82.7695 28.392ZM90.1688 28.392C87.6737 28.8222 86.125 30.9732 86.2971 33.4683C86.3831 34.3287 86.6412 35.1031 87.0714 35.7054C87.6737 36.6518 88.6201 37.2541 89.8247 37.5122C90.3409 37.5982 91.7175 37.5982 92.3198 37.5122C93.1802 37.3401 93.9545 36.9099 94.5568 36.3076C94.8149 36.0495 95.2451 35.4472 95.2451 35.4472C95.2451 35.4472 94.6429 35.1891 93.8685 34.931L92.4919 34.4148L92.3198 34.5868C92.0617 34.845 91.8896 34.931 91.5455 35.017C90.599 35.2752 89.6526 34.7589 89.4805 33.8985V33.7265H92.4919H95.5033V32.9521C95.5033 32.4359 95.5032 32.0917 95.4172 31.9196C95.2451 30.8872 94.8149 30.1989 94.2127 29.5106C93.6104 28.9083 92.9221 28.5641 91.9756 28.392C91.6315 28.306 90.599 28.306 90.1688 28.392ZM44.0519 32.9521V37.3401H45.6867H47.3214V32.9521V28.5641H45.6867H44.0519V32.9521ZM91.4594 30.8011C91.7175 30.8872 91.8036 30.9732 92.0617 31.1453C92.2338 31.3174 92.4058 31.4894 92.4058 31.7476V31.9196H90.9432C89.3084 31.9196 89.3945 31.9196 89.5666 31.5755C89.8247 30.9732 90.599 30.6291 91.4594 30.8011ZM63.6688 31.2313C64.099 31.3174 64.6153 31.7476 64.7873 32.1778C65.2175 33.1242 64.7873 34.2427 63.7549 34.5868C63.4107 34.6729 62.8945 34.6729 62.5503 34.5868C62.0341 34.4148 61.5179 33.9846 61.4318 33.4683C61.3458 33.2102 61.3458 33.1242 61.3458 32.8661C61.3458 32.5219 61.3458 32.4359 61.5179 32.1778C61.862 31.4034 62.7224 31.0593 63.6688 31.2313Z" fill="#353539"/>
</g>
<defs>
<clipPath id="clip0_903_10257">
<rect width="101.526" height="37.8571" fill="white"/>
</clipPath>
</defs>
</svg>
