<svg width="197" height="25" viewBox="0 0 197 25" fill="none" xmlns="http://www.w3.org/2000/svg">
<g clip-path="url(#clip0_11557_3405)">
<path d="M33.6569 5.33805H36.2458V20.1178H33.6569V14.6814C32.8965 15.701 31.8126 16.2149 30.405 16.2149C28.9975 16.2149 27.8979 15.6847 26.9349 14.6203C25.9835 13.5436 25.5117 12.2263 25.5117 10.6765C25.5117 9.12679 25.9874 7.81766 26.9349 6.75322C27.8979 5.67655 29.056 5.13821 30.405 5.13821C31.7541 5.13821 32.8926 5.648 33.6569 6.67166V5.34213V5.33805ZM28.8844 12.8136C29.4186 13.3601 30.0892 13.6333 30.8924 13.6333C31.6956 13.6333 32.3585 13.3601 32.877 12.8136C33.3995 12.2549 33.6608 11.5411 33.6608 10.6725C33.6608 9.80379 33.3995 9.09825 32.877 8.55175C32.3546 7.99303 31.6917 7.71162 30.8924 7.71162C30.0931 7.71162 29.4225 7.99303 28.8844 8.55175C28.3619 9.09825 28.1007 9.80379 28.1007 10.6725C28.1007 11.5411 28.3619 12.2549 28.8844 12.8136Z" fill="#1B1B1E"/>
<path d="M45.2326 5.33849H47.8216V16.0114H45.2326V14.7471C44.6049 15.7259 43.6067 16.2153 42.242 16.2153C41.1464 16.2153 40.234 15.832 39.5127 15.0612C38.8031 14.2904 38.4482 13.23 38.4482 11.8719V5.33849H41.0372V11.5375C41.0372 12.239 41.2166 12.7773 41.5792 13.1525C41.9418 13.5155 42.4214 13.699 43.0218 13.699C43.6925 13.699 44.2266 13.4829 44.6283 13.0465C45.0299 12.6142 45.2287 11.9617 45.2287 11.093V5.33441L45.2326 5.33849Z" fill="#1B1B1E"/>
<path d="M57.8151 5.33805H60.404V16.011H57.8151V14.6814C57.0391 15.701 55.9474 16.2149 54.5437 16.2149C53.1401 16.2149 52.0561 15.6847 51.0931 14.6203C50.1417 13.5436 49.6699 12.2263 49.6699 10.6766C49.6699 9.1268 50.1456 7.81766 51.0931 6.75322C52.0561 5.67655 53.2064 5.13821 54.5437 5.13821C55.9474 5.13821 57.0391 5.648 57.8151 6.67166V5.34213V5.33805ZM53.0387 12.8136C53.5612 13.3601 54.224 13.6333 55.0233 13.6333C55.8226 13.6333 56.4894 13.3601 57.008 12.8136C57.5421 12.2549 57.8112 11.5412 57.8112 10.6725C57.8112 9.80379 57.5421 9.09825 57.008 8.55175C56.4855 7.99303 55.8226 7.71162 55.0233 7.71162C54.224 7.71162 53.5573 7.99303 53.0387 8.55175C52.5162 9.09825 52.255 9.80379 52.255 10.6725C52.255 11.5412 52.5162 12.2549 53.0387 12.8136Z" fill="#1B1B1E"/>
<path d="M70.3512 1.23196H72.9402V16.0117H70.3512V14.6822C69.587 15.7018 68.5069 16.2156 67.0994 16.2156C65.6918 16.2156 64.5923 15.6855 63.6292 14.621C62.6778 13.5444 62.2061 12.2271 62.2061 10.6773C62.2061 9.12756 62.6817 7.81842 63.6292 6.75399C64.5923 5.67731 65.7503 5.13898 67.0994 5.13898C68.4485 5.13898 69.587 5.64877 70.3512 6.67242V1.23196ZM65.5787 12.8143C66.1129 13.3608 66.7836 13.6341 67.5868 13.6341C68.39 13.6341 69.0528 13.3608 69.5714 12.8143C70.0939 12.2556 70.3551 11.5419 70.3551 10.6732C70.3551 9.80456 70.0939 9.09901 69.5714 8.55252C69.0489 7.99379 68.3861 7.71239 67.5868 7.71239C66.7875 7.71239 66.1168 7.99379 65.5787 8.55252C65.0563 9.09901 64.795 9.80456 64.795 10.6732C64.795 11.5419 65.0563 12.2556 65.5787 12.8143Z" fill="#1B1B1E"/>
<path d="M80.083 16.2149C78.5702 16.2149 77.3069 15.6847 76.2931 14.6203C75.2911 13.5558 74.7881 12.2426 74.7881 10.6765C74.7881 9.11048 75.2911 7.79319 76.2931 6.73283C77.3108 5.66839 78.5741 5.13821 80.083 5.13821C81.0578 5.13821 81.9507 5.38291 82.75 5.87231C83.5532 6.3617 84.1614 7.01831 84.5747 7.84621L82.3484 9.20836C82.1495 8.77606 81.8415 8.43348 81.4243 8.18063C81.0227 7.92777 80.5665 7.80135 80.0596 7.80135C79.2837 7.80135 78.6404 8.07459 78.1335 8.62108C77.6266 9.15126 77.3732 9.83642 77.3732 10.6765C77.3732 11.5167 77.6266 12.1855 78.1335 12.732C78.6404 13.2622 79.2837 13.5314 80.0596 13.5314C80.5821 13.5314 81.0422 13.4131 81.4438 13.1765C81.8571 12.9237 82.1651 12.5811 82.3679 12.1488L84.6137 13.4906C84.1731 14.3144 83.5493 14.9792 82.7461 15.4849C81.9429 15.9743 81.0539 16.219 80.0791 16.219L80.083 16.2149Z" fill="#1B1B1E"/>
<path d="M94.3729 14.6203C93.3436 15.6847 92.0842 16.2149 90.6025 16.2149C89.1209 16.2149 87.8615 15.6847 86.8322 14.6203C85.8145 13.5436 85.3076 12.2263 85.3076 10.6766C85.3076 9.1268 85.8145 7.81766 86.8322 6.75322C87.8615 5.67655 89.1209 5.13821 90.6025 5.13821C92.0842 5.13821 93.3436 5.67655 94.3729 6.75322C95.4023 7.81766 95.917 9.12272 95.917 10.6766C95.917 12.2304 95.4023 13.5436 94.3729 14.6203ZM88.6569 12.7524C89.1794 13.2989 89.8266 13.5721 90.6025 13.5721C91.3785 13.5721 92.0257 13.2989 92.5482 12.7524C93.0706 12.2059 93.3319 11.5126 93.3319 10.6766C93.3319 9.8405 93.0706 9.14311 92.5482 8.60069C92.0257 8.0542 91.3785 7.78095 90.6025 7.78095C89.8266 7.78095 89.1794 8.0542 88.6569 8.60069C88.15 9.14719 87.8966 9.8405 87.8966 10.6766C87.8966 11.5126 88.15 12.21 88.6569 12.7524Z" fill="#1B1B1E"/>
<path d="M105.34 1.23196H107.929V16.0117H105.34V14.6822C104.58 15.7018 103.496 16.2156 102.089 16.2156C100.681 16.2156 99.5815 15.6855 98.6185 14.621C97.6671 13.5444 97.1953 12.2271 97.1953 10.6773C97.1953 9.12756 97.671 7.81842 98.6185 6.75399C99.5815 5.67731 100.74 5.13898 102.089 5.13898C103.438 5.13898 104.576 5.64877 105.34 6.67242V1.23196ZM100.568 12.8143C101.102 13.3608 101.773 13.6341 102.576 13.6341C103.379 13.6341 104.042 13.3608 104.561 12.8143C105.083 12.2556 105.344 11.5419 105.344 10.6732C105.344 9.80456 105.083 9.09901 104.561 8.55252C104.038 7.99379 103.375 7.71239 102.576 7.71239C101.777 7.71239 101.106 7.99379 100.568 8.55252C100.046 9.09901 99.7843 9.80456 99.7843 10.6732C99.7843 11.5419 100.046 12.2556 100.568 12.8143Z" fill="#1B1B1E"/>
<path d="M112.484 11.7863C112.831 13.0995 113.775 13.7602 115.311 13.7602C116.301 13.7602 117.05 13.4095 117.557 12.7121L119.643 13.9723C118.653 15.469 117.194 16.2194 115.268 16.2194C113.611 16.2194 112.278 15.6933 111.276 14.6452C110.273 13.5971 109.771 12.2757 109.771 10.6811C109.771 9.08645 110.266 7.78547 111.256 6.73735C112.246 5.67291 113.518 5.14273 115.069 5.14273C116.539 5.14273 117.752 5.67291 118.699 6.73735C119.662 7.80178 120.142 9.115 120.142 10.6811C120.142 11.0318 120.107 11.4029 120.041 11.7944H112.476L112.484 11.7863ZM112.445 9.69004H117.561C117.413 8.97634 117.105 8.44616 116.637 8.09542C116.181 7.74469 115.662 7.56932 115.073 7.56932C114.379 7.56932 113.802 7.75692 113.35 8.13621C112.894 8.49917 112.593 9.01712 112.445 9.69004Z" fill="#1B1B1E"/>
<path fill-rule="evenodd" clip-rule="evenodd" d="M20.4116 9.15171C20.3687 8.34421 19.9983 7.55302 19.3627 6.9739L12.8981 1.06444C11.3541 -0.354812 9.04972 -0.354812 7.49399 1.06444L1.02155 6.9739C0.296329 7.64274 0 8.56444 0 9.49837V12.1941C0.0428897 13.0098 0.382108 13.7928 1.02155 14.3842L7.29124 20.102L7.49789 20.2814C9.04192 21.7007 11.3463 21.7007 12.902 20.2814L13.1086 20.102L19.3783 14.3842C20.0061 13.8051 20.3609 12.9976 20.4155 12.1941V9.15171H20.4116Z" fill="#E62334"/>
<path fill-rule="evenodd" clip-rule="evenodd" d="M12.2157 1.88053L18.6881 7.78999C19.5849 8.60565 19.5849 10.0698 18.6881 10.8854L14.8943 14.3438L5.65747 5.91805C5.56 5.82833 5.41963 5.82833 5.32215 5.91805L2.37056 8.60565C1.94947 8.99309 1.94947 9.68232 2.37056 10.0698L8.843 15.9792C9.62282 16.6807 10.7652 16.6807 11.5451 15.9792L12.551 15.0616L13.3386 15.7753L12.2157 16.7949C11.0577 17.8512 9.33039 17.8512 8.16067 16.7949L1.68823 10.8895C0.803142 10.0738 0.803142 8.60973 1.68823 7.79407L8.16457 1.88053C9.32259 0.824248 11.0499 0.824248 12.2196 1.88053H12.2157ZM5.48201 8.61789L10.9719 13.6342L10.3558 14.2011C10.2623 14.2908 10.1219 14.2908 10.0283 14.2052H10.0205L4.92055 9.5355C4.80358 9.43355 4.80358 9.24594 4.91665 9.13175H4.92055L5.48201 8.61381V8.61789ZM8.8469 2.68803L6.49967 4.84545C6.3827 4.94741 6.3827 5.13909 6.49967 5.25329L14.7345 12.7614C14.832 12.8512 14.9723 12.8512 15.0698 12.7614L18.0214 10.0738C18.4425 9.6864 18.4425 8.99717 18.0214 8.60973L15.0698 5.92213C14.9723 5.8324 14.832 5.8324 14.7345 5.92213L13.557 6.9988C13.4361 7.10076 13.4361 7.29244 13.557 7.40663L15.4597 9.14399C15.5806 9.24594 15.5806 9.43762 15.4597 9.55182L14.8982 10.0616L9.42006 5.04529L10.0361 4.47841C10.1336 4.38868 10.274 4.38868 10.3714 4.47841L12.3834 6.31772C12.4808 6.40744 12.6212 6.40744 12.7187 6.31772L13.8962 5.24105C14.0171 5.13909 14.0171 4.94741 13.8962 4.83322L11.549 2.68803C10.7691 1.98656 9.62671 1.98656 8.8469 2.68803Z" fill="white"/>
<path d="M144.57 5.24424C145.162 5.90493 145.459 6.70428 145.459 7.6586C145.459 8.61292 145.162 9.42858 144.57 10.0893C143.989 10.75 143.271 11.0721 142.445 11.0721C141.618 11.0721 140.912 10.7622 140.444 10.13V10.8927H138.85V1.84702H140.444V5.19122C140.912 4.55909 141.583 4.24914 142.445 4.24914C143.306 4.24914 143.989 4.58356 144.57 5.24424ZM142.148 9.4816C142.643 9.4816 143.049 9.31439 143.373 8.97589C143.708 8.62923 143.868 8.18878 143.868 7.6586C143.868 7.12842 143.708 6.68796 143.373 6.35354C143.053 6.00281 142.643 5.8356 142.148 5.8356C141.653 5.8356 141.248 6.00281 140.924 6.35354C140.604 6.68796 140.44 7.12842 140.44 7.6586C140.44 8.18878 140.6 8.62923 140.924 8.97589C141.244 9.31031 141.653 9.4816 142.148 9.4816Z" fill="#1B1B1E"/>
<path d="M148.18 5.54232C148.476 4.71443 149.217 4.30252 150.059 4.30252V6.16223C149.576 6.09697 149.131 6.19893 148.749 6.47218C148.367 6.74542 148.18 7.1818 148.18 7.8017V10.889H146.585V4.42895H148.18V5.53825V5.54232Z" fill="#1B1B1E"/>
<path d="M153.689 11.0721C152.777 11.0721 151.997 10.75 151.365 10.0893C150.734 9.42859 150.426 8.61701 150.426 7.65861C150.426 6.70021 150.734 5.90086 151.365 5.24425C151.997 4.58357 152.773 4.24915 153.689 4.24915C154.606 4.24915 155.382 4.58357 156.013 5.24425C156.645 5.90494 156.965 6.70428 156.965 7.65861C156.965 8.61293 156.645 9.42859 156.013 10.0893C155.382 10.75 154.606 11.0721 153.689 11.0721ZM153.689 9.4449C154.173 9.4449 154.567 9.27769 154.886 8.93919C155.206 8.60477 155.37 8.17655 155.37 7.65861C155.37 7.14066 155.21 6.71652 154.886 6.37802C154.567 6.0436 154.169 5.87231 153.689 5.87231C153.21 5.87231 152.812 6.03952 152.492 6.37802C152.184 6.71244 152.024 7.14066 152.024 7.65861C152.024 8.17655 152.184 8.6007 152.492 8.93919C152.812 9.27362 153.21 9.4449 153.689 9.4449Z" fill="#1B1B1E"/>
<path d="M163.781 10.8927H161.928L159.679 7.96039V10.8927H158.084V1.84702H159.679V7.27116L161.804 4.42858H163.706L161.223 7.61781L163.781 10.8845V10.8927Z" fill="#1B1B1E"/>
<path d="M165.473 8.34784C165.683 9.1635 166.264 9.56318 167.215 9.56318C167.82 9.56318 168.292 9.34295 168.6 8.9188L169.882 9.69368C169.278 10.6113 168.373 11.0762 167.188 11.0762C166.163 11.0762 165.348 10.754 164.732 10.1056C164.116 9.46122 163.804 8.64556 163.804 7.66269C163.804 6.67981 164.112 5.88047 164.716 5.23202C165.32 4.57133 166.112 4.24915 167.063 4.24915C167.964 4.24915 168.72 4.57133 169.298 5.23202C169.89 5.8927 170.186 6.69205 170.186 7.66269C170.186 7.88291 170.163 8.10314 170.124 8.34784H165.469H165.473ZM168.6 7.05502C168.416 6.17818 167.796 5.74996 167.067 5.74996C166.213 5.74996 165.636 6.22712 165.449 7.05502H168.6Z" fill="#1B1B1E"/>
<path d="M172.896 5.54232C173.193 4.71443 173.934 4.30252 174.776 4.30252V6.16223C174.292 6.09697 173.848 6.19893 173.466 6.47218C173.084 6.74542 172.896 7.1818 172.896 7.8017V10.889H171.302V4.42895H172.896V5.53825V5.54232Z" fill="#1B1B1E"/>
<path d="M180.16 4.43267H181.754V10.8927H180.16V10.1301C179.676 10.7622 179.009 11.0721 178.148 11.0721C177.286 11.0721 176.615 10.75 176.023 10.0893C175.442 9.42859 175.146 8.61701 175.146 7.65861C175.146 6.70021 175.442 5.90086 176.023 5.24425C176.615 4.58357 177.321 4.24915 178.148 4.24915C178.974 4.24915 179.68 4.5591 180.16 5.19123V4.42859V4.43267ZM178.444 9.48161C178.939 9.48161 179.345 9.3144 179.668 8.9759C180 8.62924 180.164 8.18879 180.164 7.65861C180.164 7.12843 180.004 6.68797 179.668 6.35355C179.349 6.00282 178.939 5.83561 178.444 5.83561C177.949 5.83561 177.543 6.00282 177.22 6.35355C176.9 6.68797 176.736 7.12843 176.736 7.65861C176.736 8.18879 176.896 8.62924 177.22 8.9759C177.54 9.31032 177.949 9.48161 178.444 9.48161Z" fill="#1B1B1E"/>
<path d="M187.931 4.43314H189.487V10.5832C189.487 11.5783 189.167 12.341 188.535 12.8711C187.904 13.4013 187.151 13.6583 186.262 13.6583C184.929 13.6583 183.88 13.1158 183.334 12.084L184.691 11.2684C184.999 11.876 185.545 12.1738 186.309 12.1738C187.311 12.1738 187.927 11.6069 187.927 10.5832V9.88583C187.459 10.5465 186.804 10.8687 185.95 10.8687C185.096 10.8687 184.344 10.5465 183.751 9.91438C183.17 9.27001 182.874 8.47882 182.874 7.5612C182.874 6.64358 183.17 5.8687 183.763 5.22433C184.356 4.57996 185.085 4.25369 185.95 4.25369C186.816 4.25369 187.459 4.57588 187.927 5.23656V4.43722L187.931 4.43314ZM187.436 6.30508C187.116 5.97066 186.707 5.79937 186.2 5.79937C185.693 5.79937 185.288 5.96658 184.952 6.30508C184.633 6.62727 184.469 7.05549 184.469 7.55712C184.469 8.58893 185.198 9.3271 186.196 9.3271C187.194 9.3271 187.923 8.58893 187.923 7.55712C187.923 7.05141 187.763 6.62727 187.428 6.30508H187.436Z" fill="#1B1B1E"/>
<path d="M192.278 8.34784C192.489 9.1635 193.07 9.56318 194.021 9.56318C194.625 9.56318 195.097 9.34295 195.405 8.9188L196.688 9.69368C196.084 10.6113 195.179 11.0762 193.994 11.0762C192.968 11.0762 192.153 10.754 191.537 10.1056C190.921 9.46122 190.609 8.64556 190.609 7.66269C190.609 6.67981 190.917 5.88047 191.522 5.23202C192.126 4.57133 192.918 4.24915 193.869 4.24915C194.77 4.24915 195.526 4.57133 196.103 5.23202C196.696 5.8927 196.992 6.69205 196.992 7.66269C196.992 7.88291 196.969 8.10314 196.93 8.34784H192.274H192.278ZM195.405 7.05502C195.222 6.17818 194.602 5.74996 193.873 5.74996C193.019 5.74996 192.442 6.22712 192.255 7.05502H195.405Z" fill="#1B1B1E"/>
<path d="M141.447 20.6852C142.347 20.8809 143.521 21.3295 143.509 22.7121C143.509 23.3728 143.275 23.8866 142.792 24.2496C142.324 24.6003 141.731 24.7798 141.025 24.7798C139.754 24.7798 138.889 24.2618 138.433 23.2423L139.817 22.4266C140.004 22.9812 140.398 23.2667 141.025 23.2667C141.595 23.2667 141.879 23.0873 141.879 22.7121C141.879 22.3613 141.384 22.1697 140.756 22.0024C139.844 21.7577 138.694 21.3581 138.694 20.0122C138.694 19.3801 138.916 18.8744 139.361 18.5155C139.817 18.1403 140.374 17.9608 141.041 17.9608C142.043 17.9608 142.905 18.4502 143.388 19.3312L142.031 20.106C141.833 19.6656 141.501 19.4453 141.045 19.4453C140.639 19.4453 140.328 19.6533 140.328 19.9755C140.328 20.3263 140.823 20.5179 141.45 20.6852H141.447Z" fill="#1B1B1E"/>
<path d="M147.389 24.7794C146.476 24.7794 145.696 24.4572 145.065 23.7965C144.433 23.1358 144.125 22.3243 144.125 21.3659C144.125 20.4075 144.433 19.6081 145.065 18.9515C145.696 18.2908 146.472 17.9564 147.389 17.9564C148.305 17.9564 149.081 18.2908 149.712 18.9515C150.344 19.6122 150.664 20.4115 150.664 21.3659C150.664 22.3202 150.344 23.1358 149.712 23.7965C149.081 24.4572 148.305 24.7794 147.389 24.7794ZM147.389 23.1521C147.872 23.1521 148.266 22.9849 148.586 22.6464C148.905 22.312 149.069 21.8838 149.069 21.3659C149.069 20.8479 148.909 20.4238 148.586 20.0853C148.262 19.7468 147.868 19.5796 147.389 19.5796C146.909 19.5796 146.511 19.7468 146.191 20.0853C145.883 20.4197 145.724 20.8479 145.724 21.3659C145.724 21.8838 145.883 22.3079 146.191 22.6464C146.511 22.9809 146.909 23.1521 147.389 23.1521Z" fill="#1B1B1E"/>
<path d="M151.787 24.6003V15.1713H153.382V24.6003H151.787Z" fill="#1B1B1E"/>
<path d="M158.914 18.1403H160.509V24.6003H158.914V23.8785C158.532 24.4861 157.912 24.7838 157.074 24.7838C156.395 24.7838 155.838 24.5514 155.393 24.0742C154.961 23.5971 154.738 22.9486 154.738 22.1126V18.1444H156.333V21.9046C156.333 22.7692 156.816 23.2341 157.557 23.2341C158.384 23.2341 158.914 22.7039 158.914 21.6313V18.1444V18.1403Z" fill="#1B1B1E"/>
<path d="M165.5 19.7431H164.104V22.4307C164.104 23.1281 164.588 23.1403 165.5 23.0914V24.6044C163.313 24.8614 162.51 24.2047 162.51 22.4348V19.7472H161.434V18.1444H162.51V16.8393L164.104 16.3336V18.1403H165.5V19.7431Z" fill="#1B1B1E"/>
<path d="M166.436 16.3421C166.436 15.7874 166.88 15.3103 167.41 15.3103C167.941 15.3103 168.397 15.7874 168.397 16.3421C168.397 16.8967 167.952 17.3617 167.41 17.3617C166.868 17.3617 166.436 16.8967 166.436 16.3421ZM166.623 24.6006V18.1406H168.217V24.6006H166.623Z" fill="#1B1B1E"/>
<path d="M172.612 24.7794C171.7 24.7794 170.92 24.4572 170.288 23.7965C169.657 23.1358 169.349 22.3243 169.349 21.3659C169.349 20.4075 169.657 19.6081 170.288 18.9515C170.92 18.2908 171.696 17.9564 172.612 17.9564C173.528 17.9564 174.304 18.2908 174.936 18.9515C175.568 19.6122 175.887 20.4115 175.887 21.3659C175.887 22.3202 175.568 23.1358 174.936 23.7965C174.304 24.4572 173.528 24.7794 172.612 24.7794ZM172.612 23.1521C173.096 23.1521 173.489 22.9849 173.809 22.6464C174.129 22.312 174.293 21.8838 174.293 21.3659C174.293 20.8479 174.133 20.4238 173.809 20.0853C173.486 19.7468 173.092 19.5796 172.612 19.5796C172.133 19.5796 171.735 19.7468 171.415 20.0853C171.107 20.4197 170.947 20.8479 170.947 21.3659C170.947 21.8838 171.107 22.3079 171.415 22.6464C171.735 22.9809 172.133 23.1521 172.612 23.1521Z" fill="#1B1B1E"/>
<path d="M182.114 18.6701C182.558 19.1473 182.78 19.7957 182.78 20.6358V24.5999H181.186V20.8398C181.186 19.9752 180.702 19.5102 179.961 19.5102C179.135 19.5102 178.604 20.0404 178.604 21.113V24.5999H177.01V18.1399H178.604V18.8618C178.987 18.2541 179.607 17.9564 180.445 17.9564C181.123 17.9564 181.681 18.1889 182.114 18.666V18.6701Z" fill="#1B1B1E"/>
<path d="M186.734 20.6852C187.634 20.8809 188.808 21.3295 188.796 22.7121C188.796 23.3728 188.562 23.8866 188.079 24.2496C187.611 24.6003 187.018 24.7798 186.313 24.7798C185.042 24.7798 184.176 24.2618 183.72 23.2423L185.104 22.4266C185.291 22.9812 185.685 23.2667 186.313 23.2667C186.882 23.2667 187.166 23.0873 187.166 22.7121C187.166 22.3613 186.671 22.1697 186.044 22.0024C185.131 21.7577 183.981 21.3581 183.981 20.0122C183.981 19.3801 184.203 18.8744 184.648 18.5155C185.104 18.1403 185.661 17.9608 186.328 17.9608C187.33 17.9608 188.192 18.4502 188.675 19.3312L187.319 20.106C187.12 19.6656 186.788 19.4453 186.332 19.4453C185.927 19.4453 185.615 19.6533 185.615 19.9755C185.615 20.3263 186.11 20.5179 186.738 20.6852H186.734Z" fill="#1B1B1E"/>
<path d="M129.858 1.84702H128.248V24.9995H129.858V1.84702Z" fill="#E62334"/>
</g>
<defs>
<clipPath id="clip0_11557_3405">
<rect width="197" height="25" fill="white"/>
</clipPath>
</defs>
</svg>
